<svg width="36" height="24" viewBox="0 0 36 24" fill="none" xmlns="http://www.w3.org/2000/svg">
<path d="M35.5134 2.8522C35.5134 1.23217 34.2124 -0.0874023 32.6151 -0.0874023H3.38456C1.78733 -0.0874023 0.486328 1.23217 0.486328 2.8522V4.50065H35.5134V2.8522ZM0.490331 9.44195V20.9689C0.490331 22.593 1.78733 23.9126 3.38857 23.9126H32.6111C34.2124 23.9126 35.5134 22.593 35.5134 20.9689V9.44195H0.490331ZM11.2426 19.7184C11.2426 19.8402 11.1426 19.9376 11.0265 19.9376H4.78965C4.67356 19.9376 4.57348 19.8402 4.57348 19.7184V17.6598C4.57348 17.5421 4.67356 17.4406 4.78965 17.4406H11.0265C11.1426 17.4406 11.2426 17.5421 11.2426 17.6598V19.7184Z" fill="#00568A"/>
</svg>
