<svg width="58" height="40" viewBox="0 0 58 40" fill="none" xmlns="http://www.w3.org/2000/svg">
<path fill-rule="evenodd" clip-rule="evenodd" d="M29.2977 28.049C27.3243 29.7124 24.7644 30.7166 21.9672 30.7166C15.7257 30.7166 10.666 25.7171 10.666 19.55C10.666 13.3828 15.7257 8.3833 21.9672 8.3833C24.7644 8.3833 27.3243 9.3875 29.2977 11.051C31.2712 9.3875 33.8311 8.3833 36.6283 8.3833C42.8698 8.3833 47.9295 13.3828 47.9295 19.55C47.9295 25.7171 42.8698 30.7166 36.6283 30.7166C33.8311 30.7166 31.2712 29.7124 29.2977 28.049Z" fill="#ED0006"/>
<path fill-rule="evenodd" clip-rule="evenodd" d="M29.2979 28.049C31.7277 26.0008 33.2684 22.9532 33.2684 19.55C33.2684 16.1468 31.7277 13.0991 29.2979 11.051C31.2713 9.3875 33.8312 8.3833 36.6284 8.3833C42.8699 8.3833 47.9296 13.3828 47.9296 19.55C47.9296 25.7171 42.8699 30.7166 36.6284 30.7166C33.8312 30.7166 31.2713 29.7124 29.2979 28.049Z" fill="#F9A000"/>
<path fill-rule="evenodd" clip-rule="evenodd" d="M29.2977 28.0488C31.7275 26.0006 33.2682 22.953 33.2682 19.5498C33.2682 16.1466 31.7275 13.099 29.2977 11.0508C26.8679 13.099 25.3271 16.1466 25.3271 19.5498C25.3271 22.953 26.8679 26.0006 29.2977 28.0488Z" fill="#FF5E00"/>
</svg>
