<svg width="24" height="24" viewBox="0 0 24 24" fill="none" xmlns="http://www.w3.org/2000/svg">
<path d="M0.327701 12.031C0.0697096 12.126 -0.0632701 12.412 0.030711 12.671L0.344716 13.535L2.73558 11.144L0.327701 12.031Z" fill="#009B94"/>
<path d="M2.58929 19.7104L4.02924 23.6703C4.07424 23.7953 4.16822 23.8973 4.28822 23.9523C4.3552 23.9833 4.4272 23.9993 4.4992 23.9993C4.55821 23.9993 4.61619 23.9893 4.67221 23.9683L6.26117 23.3824L2.58929 19.7104Z" fill="#009B94"/>
<path d="M23.9691 16.3297L22.3212 11.7988L18.3664 15.7537L20.3263 15.0317C20.5833 14.9337 20.8732 15.0677 20.9683 15.3277C21.0642 15.5867 20.9313 15.8747 20.6722 15.9697L18.1823 16.8876C18.1253 16.9086 18.0674 16.9186 18.0093 16.9186C17.8063 16.9186 17.6143 16.7936 17.5404 16.5916C17.5394 16.5886 17.5404 16.5856 17.5394 16.5826L13.3485 20.7735L23.6721 16.9696C23.9311 16.8746 24.0641 16.5886 23.9691 16.3297Z" fill="#009B94"/>
<path d="M23.8528 8.14647L15.8531 0.146733C15.6581 -0.04826 15.3411 -0.04826 15.1461 0.146733L0.146611 15.1462C-0.0483821 15.3412 -0.0483821 15.6582 0.146611 15.8532L8.14636 23.8529C8.24334 23.9509 8.37135 23.9999 8.49936 23.9999C8.62737 23.9999 8.75534 23.9509 8.85335 23.8539L23.8528 8.85444C24.0478 8.65847 24.0478 8.34245 23.8528 8.14647ZM5.85345 13.8543L3.8535 15.8542C3.75549 15.9512 3.62752 16.0002 3.49951 16.0002C3.3715 16.0002 3.24354 15.9512 3.14553 15.8542C2.95053 15.6592 2.95053 15.3422 3.14553 15.1472L5.14547 13.1472C5.34047 12.9523 5.65747 12.9523 5.85246 13.1472C6.04746 13.3423 6.04844 13.6583 5.85345 13.8543ZM14.4881 14.4892C14.1342 14.8432 13.6532 15.0132 13.1182 15.0132C12.2342 15.0132 11.2012 14.5503 10.3373 13.6853C9.70527 13.0533 9.26129 12.2973 9.08832 11.5573C8.89633 10.7324 9.05434 10.0144 9.53329 9.53444C10.0123 9.05445 10.7303 8.89644 11.5562 9.08947C12.2962 9.26248 13.0522 9.70543 13.6841 10.3384C15.0731 11.7263 15.4271 13.5503 14.4881 14.4892ZM20.8529 8.85444L18.853 10.8544C18.755 10.9514 18.627 11.0004 18.499 11.0004C18.371 11.0004 18.243 10.9514 18.145 10.8544C17.95 10.6594 17.95 10.3424 18.145 10.1474L20.145 8.14745C20.34 7.95246 20.657 7.95246 20.852 8.14745C21.047 8.34245 21.0479 8.65847 20.8529 8.85444Z" fill="#009B94"/>
</svg>
