<svg width="16" height="16" viewBox="0 0 16 16" fill="none" xmlns="http://www.w3.org/2000/svg">
<path d="M7.11194 5.11152V8.38251C7.11194 8.69361 7.28082 8.98693 7.54748 9.14692L10.3207 10.7913C10.6407 10.978 11.0496 10.8713 11.2362 10.5602C11.4229 10.2402 11.3251 9.83134 11.0051 9.64468L8.45411 8.12474V5.10263C8.44522 4.74709 8.14301 4.44487 7.77858 4.44487C7.41415 4.44487 7.11194 4.74709 7.11194 5.11152ZM16.0005 5.77816V1.07611C16.0005 0.676126 15.5205 0.480578 15.245 0.765012L13.6628 2.34717C12.054 0.738346 9.76073 -0.186064 7.25416 0.0361499C3.52985 0.373915 0.463297 3.36936 0.0544229 7.09366C-0.478891 11.9113 3.28097 16 8.00079 16C12.0806 16 15.4494 12.9423 15.9383 8.99582C16.0005 8.4625 15.5827 8.0003 15.0494 8.0003C14.605 8.0003 14.2317 8.32917 14.1783 8.76471C13.7961 11.8668 11.1207 14.2667 7.91191 14.2223C4.61425 14.1778 1.83213 11.3957 1.7788 8.08918C1.72547 4.62265 4.54315 1.77831 8.00079 1.77831C9.71629 1.77831 11.2718 2.4805 12.4006 3.60046L10.5429 5.45817C10.2585 5.7426 10.454 6.22259 10.854 6.22259H15.5561C15.8049 6.22259 16.0005 6.02704 16.0005 5.77816Z" fill="#009B94"/>
</svg>
