<svg width="58" height="40" viewBox="0 0 58 40" fill="none" xmlns="http://www.w3.org/2000/svg">
<path d="M18.1968 8.33447H27.1271C28.3737 8.33447 29.149 9.38044 28.8582 10.6679L24.7005 29.0436C24.4071 30.3266 23.159 31.3735 21.9115 31.3735H12.9821C11.7372 31.3735 10.9601 30.3266 11.2509 29.0436L15.4104 10.6679C15.7012 9.38044 16.9486 8.33447 18.1968 8.33447Z" fill="#E21836"/>
<path d="M26.3832 8.3335H36.6528C37.8992 8.3335 37.3372 9.37946 37.044 10.667L32.8869 29.0426C32.5953 30.3256 32.6863 31.3725 31.4373 31.3725H21.1676C19.9187 31.3725 19.1457 30.3256 19.4391 29.0426L23.596 10.667C23.8911 9.37946 25.136 8.3335 26.3832 8.3335Z" fill="#00447C"/>
<path d="M36.2461 8.3335H45.1764C46.4247 8.3335 47.2001 9.37946 46.9069 10.667L42.7498 29.0426C42.4564 30.3256 41.2074 31.3725 39.9593 31.3725H31.0331C29.7841 31.3725 29.0095 30.3256 29.302 29.0426L33.4597 10.667C33.7505 9.37946 34.9971 8.3335 36.2461 8.3335Z" fill="#007B84"/>
<path d="M20.5286 14.2224C19.6103 14.232 19.3391 14.2224 19.2525 14.2013C19.2192 14.3642 18.5994 17.3069 18.5977 17.3094C18.4643 17.9048 18.3672 18.3292 18.0374 18.6032C17.8502 18.7625 17.6317 18.8394 17.3783 18.8394C16.9711 18.8394 16.7338 18.6312 16.694 18.2364L16.6864 18.1008C16.6864 18.1008 16.8104 17.3034 16.8104 17.2989C16.8104 17.2989 17.4608 14.6172 17.5773 14.2627C17.5834 14.2426 17.5851 14.232 17.5866 14.2224C16.3207 14.2338 16.0963 14.2224 16.0808 14.2013C16.0723 14.2302 16.041 14.3965 16.041 14.3965L15.3769 17.419L15.3198 17.6753L15.2095 18.5138C15.2095 18.7625 15.2569 18.9655 15.3514 19.1372C15.654 19.6814 16.517 19.763 17.0052 19.763C17.6343 19.763 18.2244 19.6254 18.6232 19.3742C19.3154 18.9532 19.4965 18.2951 19.658 17.7103L19.7329 17.4102C19.7329 17.4102 20.4028 14.625 20.5167 14.2627C20.521 14.2426 20.5228 14.232 20.5286 14.2224ZM22.8082 16.4692C22.6467 16.4692 22.3516 16.5096 22.0864 16.6433C21.9902 16.6942 21.8992 16.7529 21.8033 16.8114L21.8899 16.4894L21.8424 16.4352C21.2802 16.5524 21.1544 16.5681 20.635 16.6433L20.5915 16.6731C20.5312 17.1878 20.4776 17.5748 20.2541 18.5865C20.169 18.9593 20.0806 19.3358 19.992 19.7077L20.016 19.755C20.5482 19.7261 20.7097 19.7261 21.1722 19.7339L21.2097 19.692C21.2684 19.3822 21.2761 19.3096 21.4062 18.6819C21.4674 18.3844 21.5949 17.7305 21.6578 17.4977C21.7734 17.4426 21.8875 17.3884 21.9963 17.3884C22.2556 17.3884 22.224 17.6212 22.214 17.714C22.2029 17.8697 22.1084 18.3783 22.0116 18.815L21.9469 19.0969C21.9019 19.3051 21.8524 19.5074 21.8074 19.7138L21.827 19.755C22.3516 19.7261 22.5115 19.7261 22.9595 19.7339L23.0122 19.692C23.0932 19.2081 23.1169 19.0785 23.2605 18.3738L23.3328 18.0501C23.4732 17.4164 23.5437 17.0951 23.4375 16.8334C23.3252 16.54 23.0557 16.4692 22.8082 16.4692ZM25.3548 17.1327C25.0759 17.1878 24.8981 17.2246 24.7214 17.2483C24.5461 17.2772 24.3753 17.3034 24.1058 17.342L24.0845 17.3619L24.0649 17.3778C24.0368 17.5844 24.0172 17.763 23.98 17.973C23.9484 18.1901 23.8999 18.4368 23.8209 18.7913C23.7597 19.0626 23.7281 19.1572 23.6933 19.2526C23.6594 19.3481 23.6219 19.4408 23.5531 19.7077L23.5692 19.7324L23.5827 19.755C23.8346 19.7427 23.9994 19.7339 24.1687 19.7324C24.3378 19.7261 24.5131 19.7324 24.7843 19.7339L24.808 19.714L24.8335 19.692C24.8726 19.4514 24.8785 19.3866 24.9025 19.2692C24.9262 19.1433 24.9671 18.9689 25.0675 18.5033C25.1149 18.2846 25.1678 18.0666 25.217 17.8434C25.2681 17.6212 25.3217 17.4022 25.3726 17.1836L25.365 17.1571L25.3548 17.1327ZM25.3607 16.2382C25.1074 16.0842 24.6627 16.1331 24.3634 16.3457C24.0649 16.5541 24.031 16.8499 24.2835 17.0058C24.5325 17.1555 24.9789 17.1109 25.2756 16.8965C25.5734 16.6836 25.6106 16.3905 25.3607 16.2382ZM26.893 19.8032C27.4056 19.8032 27.9311 19.6578 28.3266 19.2262C28.6309 18.8763 28.7704 18.3555 28.8187 18.1411C28.9761 17.4303 28.8535 17.0985 28.6997 16.8964C28.4659 16.5883 28.0527 16.4894 27.6242 16.4894C27.3664 16.4894 26.7526 16.5157 26.2731 16.9708C25.9287 17.299 25.7696 17.7445 25.6736 18.1715C25.5768 18.6067 25.4653 19.39 26.1651 19.6816C26.381 19.777 26.6923 19.8032 26.893 19.8032ZM26.853 18.204C26.9711 17.6658 27.1107 17.2141 27.4668 17.2141C27.7458 17.2141 27.7661 17.5502 27.642 18.0902C27.6198 18.2101 27.5179 18.6558 27.3801 18.8456C27.2839 18.9856 27.1701 19.0705 27.0443 19.0705C27.0068 19.0705 26.7842 19.0705 26.7807 18.7302C26.7789 18.5621 26.8122 18.3905 26.853 18.204ZM30.1001 19.734L30.1402 19.6921C30.197 19.3822 30.2064 19.3094 30.3322 18.682C30.3951 18.3844 30.5252 17.7306 30.5864 17.4978C30.7022 17.4424 30.8143 17.3882 30.9266 17.3882C31.1841 17.3882 31.1528 17.621 31.1426 17.7138C31.1332 17.8697 31.0387 18.3782 30.9401 18.8149L30.879 19.0968C30.8322 19.3051 30.7812 19.5073 30.7362 19.7139L30.7558 19.7551C31.2821 19.7262 31.436 19.7262 31.8865 19.734L31.941 19.6921C32.02 19.2079 32.0413 19.0784 32.1893 18.3739L32.2599 18.0499C32.4009 17.4162 32.4723 17.0951 32.3678 16.8334C32.2522 16.5401 31.981 16.4693 31.737 16.4693C31.5753 16.4693 31.2786 16.5094 31.015 16.6434C30.9208 16.6943 30.8263 16.7528 30.7336 16.8115L30.8143 16.4895L30.771 16.435C30.209 16.5524 30.0806 16.5681 29.5618 16.6434L29.522 16.6732C29.4591 17.1879 29.408 17.5746 29.1844 18.5865C29.0993 18.9594 29.0109 19.3358 28.9225 19.7078L28.9463 19.7551C29.4793 19.7262 29.6385 19.7262 30.1001 19.734ZM33.9671 19.755C34.0002 19.5887 34.1968 18.6032 34.1985 18.6032C34.1985 18.6032 34.3659 17.8802 34.3761 17.8539C34.3761 17.8539 34.4288 17.7787 34.4815 17.7489H34.559C35.2901 17.7489 36.1157 17.7489 36.7629 17.2588C37.2032 16.9227 37.5043 16.4264 37.6386 15.8232C37.6734 15.6753 37.6991 15.4994 37.6991 15.3235C37.6991 15.0925 37.654 14.8639 37.5238 14.6854C37.1939 14.2101 36.5367 14.2014 35.7781 14.1978C35.7757 14.1978 35.4042 14.2014 35.4042 14.2014C34.4332 14.2137 34.0438 14.2101 33.8838 14.1899C33.8703 14.2628 33.8448 14.3923 33.8448 14.3923C33.8448 14.3923 33.497 16.0517 33.497 16.0544C33.497 16.0544 32.6646 19.5827 32.6254 19.7489C33.4732 19.7384 33.8209 19.7384 33.9671 19.755ZM34.6117 16.8071C34.6117 16.8071 34.9815 15.151 34.9797 15.1573L34.9917 15.0723L34.9969 15.0076L35.1447 15.0233C35.1447 15.0233 35.9074 15.0907 35.9253 15.0925C36.2263 15.2124 36.3504 15.5214 36.2638 15.9247C36.1847 16.2933 35.9525 16.6032 35.6541 16.7529C35.4083 16.8797 35.1073 16.8902 34.7971 16.8902H34.5964L34.6117 16.8071ZM36.9142 18.2347C36.8165 18.6636 36.7042 19.4469 37.4005 19.7261C37.6225 19.8234 37.8215 19.8523 38.0237 19.8417C38.2372 19.8299 38.4351 19.7196 38.6184 19.561C38.6018 19.6262 38.5853 19.6914 38.5687 19.7568L38.6003 19.7987C39.1012 19.777 39.2566 19.777 39.7992 19.7813L39.8484 19.7427C39.9277 19.2632 40.0023 18.7976 40.2082 17.8802C40.3086 17.4408 40.4087 17.0057 40.5117 16.5681L40.4956 16.5199C39.9353 16.6268 39.7855 16.6496 39.2466 16.7283L39.2056 16.7626C39.2002 16.8072 39.1945 16.85 39.1893 16.8928C39.1055 16.7534 38.9841 16.6344 38.7966 16.5602C38.557 16.4632 37.9941 16.5882 37.5102 17.0418C37.1702 17.3655 37.007 17.8092 36.9142 18.2347ZM38.091 18.2609C38.2109 17.7323 38.3487 17.2851 38.7057 17.2851C38.9314 17.2851 39.0502 17.4995 39.0261 17.8652C39.0069 17.9564 38.9862 18.0525 38.9616 18.1612C38.9259 18.3183 38.8872 18.474 38.8495 18.63C38.8112 18.7366 38.7666 18.8372 38.7176 18.9042C38.6258 19.0382 38.4072 19.1214 38.2814 19.1214C38.2457 19.1214 38.0254 19.1214 38.0178 18.787C38.0161 18.6206 38.0494 18.4491 38.091 18.2609ZM44.2359 16.5156L44.1925 16.4648C43.6381 16.5804 43.5378 16.5987 43.0285 16.6696L42.991 16.7081C42.9893 16.7144 42.9877 16.724 42.9851 16.7327L42.9834 16.724C42.6042 17.6245 42.6153 17.4303 42.3067 18.1392C42.3049 18.107 42.3049 18.0868 42.3032 18.0525L42.2259 16.5156L42.1774 16.4648C41.5966 16.5804 41.5829 16.5987 41.0466 16.6696L41.0048 16.7081C40.9989 16.7265 40.9989 16.7466 40.9954 16.7686L40.9989 16.7764C41.066 17.1291 41.0498 17.0505 41.1171 17.6071C41.1484 17.8802 41.1902 18.1549 41.2216 18.4247C41.2745 18.8762 41.3041 19.0985 41.3687 19.7875C41.0065 20.4028 40.9208 20.6356 40.5721 21.1756L40.5745 21.181L40.3289 21.5807C40.3008 21.6229 40.2754 21.6518 40.2397 21.6641C40.2005 21.684 40.1496 21.6876 40.0788 21.6876H39.9428L39.7406 22.38L40.4343 22.3923C40.8415 22.3905 41.0975 22.1945 41.2353 21.931L41.6715 21.1615H41.6645L41.7105 21.1073C42.0039 20.457 44.2359 16.5156 44.2359 16.5156ZM36.9142 25.609H36.6199L37.7091 21.9004H38.0705L38.1852 21.5183L38.1963 21.9432C38.1828 22.2058 38.3835 22.4386 38.9107 22.4001H39.5204L39.7302 21.6859H39.5008C39.3689 21.6859 39.3077 21.6517 39.3153 21.5782L39.3042 21.1459H38.1752V21.1482C37.8101 21.156 36.7201 21.1842 36.4993 21.2447C36.2323 21.3156 35.9508 21.5239 35.9508 21.5239L36.0614 21.1415H35.0053L34.7852 21.9004L33.6814 25.6657H33.4672L33.2572 26.3746H35.3607L35.2902 26.611H36.3267L36.3955 26.3746H36.6863L36.9142 25.609ZM36.0512 22.6539C35.882 22.7021 35.5673 22.8482 35.5673 22.8482L35.8472 21.9004H36.6863L36.4839 22.591C36.4839 22.591 36.2246 22.6067 36.0512 22.6539ZM36.0673 24.008C36.0673 24.008 35.8037 24.0421 35.6302 24.0824C35.4593 24.1357 35.1389 24.3038 35.1389 24.3038L35.428 23.3174H36.2714L36.0673 24.008ZM35.5971 25.6177H34.7554L34.9994 24.7853H35.8385L35.5971 25.6177ZM37.6242 23.3174H38.8375L38.6631 23.8986H37.4337L37.2491 24.5341H38.3248L37.5103 25.7147C37.4533 25.8015 37.4021 25.8322 37.3453 25.8566C37.2883 25.8864 37.2134 25.9213 37.1268 25.9213H36.8284L36.6233 26.6173H37.4039C37.8096 26.6173 38.0493 26.4273 38.2262 26.1779L38.7848 25.391L38.9047 26.19C38.9302 26.3397 39.0347 26.4273 39.1054 26.4613C39.1836 26.5017 39.2643 26.5709 39.3784 26.5812C39.5007 26.5866 39.5891 26.5909 39.6478 26.5909H40.0314L40.2617 25.812H40.1104C40.0235 25.812 39.874 25.797 39.8485 25.769C39.8231 25.7349 39.8231 25.6825 39.8093 25.6027L39.6877 24.8019H39.1894L39.408 24.5341H40.635L40.8237 23.8986H39.6877L39.8646 23.3174H40.9972L41.2072 22.6006H37.8307L37.6242 23.3174ZM27.3767 25.7796L27.6599 24.8098H28.8238L29.0364 24.0885H27.8715L28.0493 23.4916H29.1877L29.3986 22.7931H26.5502L26.3437 23.4916H26.9908L26.8182 24.0885H26.1693L25.9542 24.8221H26.6012L26.2237 26.1051C26.1728 26.275 26.2477 26.3397 26.2951 26.4186C26.3437 26.4955 26.3928 26.5463 26.5034 26.5752C26.6175 26.6015 26.6956 26.6171 26.8018 26.6171H28.114L28.3477 25.8181L27.7661 25.9003C27.6538 25.9003 27.3428 25.8864 27.3767 25.7796ZM27.5102 21.1371L27.2153 21.6858C27.1521 21.8057 27.0953 21.8801 27.0442 21.9144C26.9991 21.9433 26.9099 21.9554 26.7806 21.9554H26.6267L26.421 22.6574H26.9321C27.1778 22.6574 27.3665 22.5646 27.4567 22.5183C27.5535 22.4649 27.579 22.4954 27.6539 22.421L27.8265 22.2671H29.4224L29.6342 21.5362H28.466L28.6699 21.1371H27.5102ZM29.8663 25.7937C29.8391 25.7533 29.8587 25.6823 29.9003 25.5344L30.3365 24.0481H31.8883C32.1144 24.0448 32.2777 24.0421 32.3839 24.0343C32.498 24.0219 32.622 23.98 32.7572 23.9047C32.8967 23.8259 32.9681 23.7427 33.0284 23.6473C33.0957 23.5521 33.2036 23.3437 33.2964 23.0223L33.8447 21.1415L32.2344 21.1511C32.2344 21.1511 31.7385 21.2264 31.5202 21.3095C31.2999 21.4023 30.9852 21.6613 30.9852 21.6613L31.1306 21.1458H30.1358L28.7432 25.9003C28.6938 26.0849 28.6607 26.2189 28.6531 26.2994C28.6504 26.3861 28.7593 26.4719 28.8298 26.5367C28.9132 26.6014 29.0364 26.5909 29.1546 26.6014C29.2789 26.6111 29.4556 26.6171 29.6996 26.6171H30.4641L30.6987 25.8015L30.0144 25.868C29.9412 25.868 29.8883 25.8277 29.8663 25.7937ZM30.618 23.0443H32.2479L32.1442 23.3786C32.1297 23.3865 32.0948 23.362 31.929 23.3822H30.5176L30.618 23.0443ZM30.9445 21.9231H32.5881L32.4699 22.3257C32.4699 22.3257 31.6952 22.3179 31.5711 22.3414C31.0252 22.4386 30.7063 22.7389 30.7063 22.7389L30.9445 21.9231ZM32.1807 24.4981C32.1672 24.5481 32.1459 24.5786 32.1161 24.6014C32.083 24.6234 32.0294 24.6312 31.9496 24.6312H31.7173L31.731 24.2241H30.765L30.7258 26.2145C30.7243 26.3582 30.7378 26.4413 30.8399 26.5078C30.942 26.591 31.2565 26.6015 31.6799 26.6015H32.2852L32.5037 25.8565L31.9768 25.8863L31.8015 25.8968C31.7776 25.8863 31.7547 25.8766 31.7293 25.8504C31.7071 25.8278 31.6696 25.8417 31.6757 25.698L31.6799 25.1878L32.2325 25.1643C32.531 25.1643 32.6585 25.0644 32.7673 24.9691C32.8712 24.8779 32.9051 24.7731 32.9443 24.6312L33.037 24.1795H32.2776L32.1807 24.4981Z" fill="#FEFEFE"/>
</svg>
