<svg width="57" height="40" viewBox="0 0 57 40" fill="none" xmlns="http://www.w3.org/2000/svg">
<path fill-rule="evenodd" clip-rule="evenodd" d="M17.9176 26.4304H14.4847L11.9104 16.3206C11.7882 15.8555 11.5288 15.4444 11.1472 15.2506C10.1948 14.7637 9.14535 14.3761 8.00049 14.1807V13.7914H13.5306C14.2939 13.7914 14.8663 14.3761 14.9617 15.0552L16.2974 22.3477L19.7286 13.7914H23.0661L17.9176 26.4304ZM24.9737 26.4304H21.7316L24.4013 13.7914H27.6434L24.9737 26.4304ZM31.8389 17.2929C31.9343 16.6121 32.5067 16.2229 33.1745 16.2229C34.224 16.1252 35.3672 16.3206 36.3212 16.8059L36.8936 14.0847C35.9396 13.6955 34.8901 13.5 33.9378 13.5C30.7911 13.5 28.5014 15.2507 28.5014 17.6804C28.5014 19.5288 30.1232 20.4993 31.2681 21.084C32.5067 21.667 32.9837 22.0563 32.8883 22.6392C32.8883 23.5137 31.9343 23.903 30.9819 23.903C29.837 23.903 28.6922 23.6115 27.6444 23.1245L27.072 25.8474C28.2168 26.3327 29.4554 26.5281 30.6003 26.5281C34.1286 26.6242 36.3212 24.8752 36.3212 22.25C36.3212 18.9441 31.8389 18.7504 31.8389 17.2929ZM47.6676 26.4304L45.0934 13.7914H42.3283C41.7559 13.7914 41.1834 14.1807 40.9926 14.7637L36.2257 26.4304H39.5632L40.2294 24.5836H44.3301L44.7117 26.4304H47.6676ZM42.8044 17.1953L43.7568 21.9587H41.0871L42.8044 17.1953Z" fill="#172B85"/>
</svg>
