<svg width="184" height="55" viewBox="0 0 184 55" fill="none" xmlns="http://www.w3.org/2000/svg">
<g clip-path="url(#clip0)">
<path d="M169.347 -6.6712e-05H14.6609C14.097 -6.6712e-05 13.5399 -6.6712e-05 12.9776 0.00266296C12.5068 0.00539263 12.0398 0.0133223 11.5646 0.0199964C10.5321 0.030781 9.502 0.111408 8.4833 0.261176C7.46604 0.414205 6.48064 0.702708 5.56044 1.11693C4.64136 1.53465 3.80157 2.07744 3.07154 2.7256C2.33767 3.37195 1.72594 4.11903 1.25986 4.93813C0.792499 5.75559 0.468427 6.63158 0.29884 7.53584C0.127641 8.43896 0.0355169 9.3525 0.0232952 10.2682C0.00902594 10.6867 0.00751905 11.1066 0 11.5251V43.0722C0.00751905 43.496 0.00902594 43.9065 0.0232952 44.3305C0.0355207 45.2462 0.127645 46.1597 0.29884 47.0627C0.467958 47.9675 0.79205 48.844 1.25986 49.6618C1.72573 50.4782 2.33755 51.2223 3.07154 51.865C3.7988 52.5161 4.63913 53.0592 5.56044 53.4738C6.48063 53.8891 7.46592 54.1793 8.4833 54.3347C9.50217 54.4833 10.5321 54.5639 11.5646 54.576C12.0398 54.5853 12.5068 54.5906 12.9776 54.5906C13.5399 54.5933 14.0971 54.5933 14.6609 54.5933H169.347C169.9 54.5933 170.462 54.5933 171.014 54.5906C171.483 54.5906 171.963 54.5853 172.432 54.576C173.462 54.5646 174.49 54.4839 175.507 54.3347C176.528 54.1782 177.516 53.8881 178.441 53.4738C179.362 53.059 180.201 52.5159 180.928 51.865C181.66 51.2198 182.273 50.4763 182.745 49.6618C183.209 48.8434 183.53 47.967 183.697 47.0627C183.868 46.1595 183.963 45.2462 183.982 44.3305C183.988 43.9065 183.988 43.496 183.988 43.0722C184 42.5764 184 42.0833 184 41.5794V13.0152C184 12.5154 184 12.0195 183.988 11.5251C183.988 11.1066 183.988 10.6867 183.982 10.2682C183.963 9.35236 183.868 8.43903 183.697 7.53579C183.53 6.63205 183.209 5.75613 182.745 4.93807C181.796 3.29628 180.29 1.95987 178.441 1.11681C177.516 0.703598 176.528 0.415171 175.507 0.261054C174.49 0.110625 173.462 0.0299703 172.432 0.0198053C171.963 0.0131449 171.483 0.00514696 171.014 0.00248553C170.462 -0.000244141 169.9 -0.000244141 169.347 -0.000244141V-6.6712e-05Z" fill="#303030"/>
<path d="M12.8528 53.4031C12.3835 53.4031 11.9255 53.3978 11.4599 53.3885C10.4954 53.3774 9.53306 53.3029 8.5809 53.1659C7.69306 53.0303 6.83298 52.7783 6.02903 52.4179C5.23246 52.0606 4.50592 51.592 3.87725 51.0301C3.23947 50.4749 2.7085 49.8309 2.30536 49.1237C1.89778 48.4119 1.61571 47.649 1.46898 46.8615C1.31052 46.0152 1.22479 45.1596 1.21252 44.3019C1.20276 44.014 1.18997 43.0554 1.18997 43.0554V11.5203C1.18997 11.5203 1.20359 10.5765 1.2126 10.2992C1.22434 9.4428 1.30958 8.58847 1.46756 7.74356C1.61457 6.95387 1.89685 6.18871 2.30465 5.47459C2.70631 4.76789 3.23433 4.12344 3.86827 3.56622C4.50148 3.00371 5.23035 2.53272 6.02828 2.17043C6.83038 1.81124 7.68883 1.56093 8.57488 1.42789C9.53016 1.28942 10.4958 1.21455 11.4637 1.20392L12.8536 1.18726H171.147L172.554 1.20459C173.513 1.21469 174.47 1.28889 175.416 1.42655C176.311 1.56126 177.179 1.81332 177.99 2.17443C179.588 2.90456 180.889 4.05969 181.71 5.47793C182.111 6.18712 182.389 6.94603 182.534 7.7289C182.694 8.58074 182.783 9.44178 182.802 10.3052C182.806 10.6918 182.806 11.107 182.806 11.5203C182.818 12.0322 182.818 12.5195 182.818 13.0107V41.5809C182.818 42.0768 182.818 42.5608 182.806 43.0487C182.806 43.4926 182.806 43.8993 182.8 44.3178C182.782 45.1658 182.694 46.0115 182.537 46.8481C182.393 47.6413 182.113 48.4102 181.705 49.1278C181.299 49.8274 180.771 50.4657 180.141 51.0195C179.512 51.5843 178.784 52.0557 177.985 52.4153C177.176 52.7784 176.31 53.0314 175.416 53.1659C174.464 53.3037 173.502 53.3781 172.537 53.3885C172.086 53.3978 171.614 53.4031 171.155 53.4031L169.485 53.4058L12.8528 53.4031Z" fill="#303030"/>
<path d="M44.7016 27.7069C44.7163 26.5677 45.0185 25.4508 45.58 24.46C46.1416 23.4692 46.9443 22.6367 47.9135 22.04C47.2978 21.1595 46.4856 20.4348 45.5413 19.9236C44.597 19.4124 43.5467 19.1288 42.4737 19.0952C40.185 18.8546 37.9662 20.4666 36.7999 20.4666C35.611 20.4666 33.8153 19.119 31.8816 19.1589C30.6308 19.1993 29.4119 19.5636 28.3435 20.216C27.2751 20.8685 26.3937 21.787 25.7852 22.882C23.1492 27.452 25.1154 34.1684 27.6404 37.8625C28.9038 39.6714 30.3802 41.692 32.3122 41.6203C34.2027 41.5418 34.9088 40.4131 37.1908 40.4131C39.4516 40.4131 40.114 41.6203 42.0852 41.5748C44.1138 41.5418 45.3919 39.7578 46.6109 37.9318C47.5186 36.6429 48.2171 35.2184 48.6804 33.7111C47.5019 33.2119 46.4961 32.3764 45.7886 31.3087C45.081 30.241 44.703 28.9883 44.7016 27.7069Z" fill="white"/>
<path d="M40.9785 16.6657C42.0846 15.3361 42.6295 13.6271 42.4975 11.9016C40.8077 12.0793 39.2468 12.8881 38.1257 14.1667C37.5776 14.7913 37.1578 15.518 36.8904 16.3052C36.6229 17.0924 36.513 17.9247 36.5669 18.7544C37.4121 18.7632 38.2483 18.5797 39.0125 18.2179C39.7766 17.8561 40.4488 17.3254 40.9785 16.6657Z" fill="white"/>
<path d="M68.5989 37.041H62.1474L60.5981 41.622H57.8655L63.9763 24.6735H66.8153L72.926 41.622H70.1468L68.5989 37.041ZM62.8156 34.9271H67.9294L65.4085 27.4925H65.3379L62.8156 34.9271Z" fill="white"/>
<path d="M86.123 35.4443C86.123 39.2842 84.0706 41.7513 80.9733 41.7513C80.1887 41.7924 79.4084 41.6114 78.7217 41.2291C78.0351 40.8467 77.4698 40.2785 77.0907 39.5894H77.0321V45.7098H74.4992V29.2652H76.951V31.3204H76.9975C77.3941 30.6346 77.9689 30.0693 78.6608 29.6847C79.3527 29.3 80.1357 29.1103 80.9267 29.1359C84.0585 29.1359 86.123 31.615 86.123 35.4443ZM83.5195 35.4443C83.5195 32.9425 82.2284 31.2978 80.2585 31.2978C78.3232 31.2978 77.0215 32.9772 77.0215 35.4443C77.0215 37.934 78.3232 39.6014 80.2585 39.6014C82.2284 39.6014 83.5195 37.9687 83.5195 35.4443Z" fill="white"/>
<path d="M99.7045 35.4443C99.7045 39.2842 97.6521 41.7513 94.5548 41.7513C93.7702 41.7924 92.9899 41.6115 92.3032 41.2291C91.6166 40.8468 91.0513 40.2785 90.6722 39.5894H90.6136V45.7099H88.0807V29.2652H90.5324V31.3205H90.579C90.9755 30.6347 91.5503 30.0694 92.2422 29.6847C92.9341 29.3001 93.7172 29.1104 94.5081 29.1359C97.6401 29.1359 99.7045 31.615 99.7045 35.4443ZM97.101 35.4443C97.101 32.9426 95.8099 31.2978 93.84 31.2978C91.9047 31.2978 90.603 32.9772 90.603 35.4443C90.603 37.9341 91.9047 39.6015 93.84 39.6015C95.8099 39.6015 97.101 37.9687 97.101 35.4443H97.101Z" fill="white"/>
<path d="M108.681 36.8998C108.869 38.5805 110.499 39.684 112.728 39.684C114.863 39.684 116.399 38.5804 116.399 37.065C116.399 35.7495 115.472 34.9618 113.279 34.4219L111.085 33.8928C107.977 33.1411 106.534 31.6856 106.534 29.3238C106.534 26.3995 109.079 24.3909 112.693 24.3909C116.269 24.3909 118.721 26.3995 118.804 29.3238H116.247C116.094 27.6324 114.697 26.6115 112.657 26.6115C110.617 26.6115 109.22 27.6444 109.22 29.1479C109.22 30.3461 110.112 31.0512 112.294 31.5909L114.158 32.0494C117.631 32.8718 119.074 34.2687 119.074 36.7477C119.074 39.9186 116.552 41.9045 112.54 41.9045C108.786 41.9045 106.252 39.9652 106.088 36.8996L108.681 36.8998Z" fill="white"/>
<path d="M124.54 26.3409V29.2652H126.887V31.2738H124.54V38.086C124.54 39.1443 125.01 39.6374 126.042 39.6374C126.32 39.6326 126.599 39.613 126.875 39.5787V41.5753C126.411 41.6621 125.94 41.7014 125.468 41.6926C122.97 41.6926 121.996 40.753 121.996 38.3565V31.2738H120.201V29.2652H121.996V26.3409H124.54Z" fill="white"/>
<path d="M128.246 35.4443C128.246 31.5564 130.533 29.1133 134.099 29.1133C137.676 29.1133 139.952 31.5563 139.952 35.4443C139.952 39.3429 137.688 41.7753 134.099 41.7753C130.51 41.7753 128.246 39.3429 128.246 35.4443ZM137.372 35.4443C137.372 32.7773 136.151 31.2032 134.099 31.2032C132.046 31.2032 130.827 32.7893 130.827 35.4443C130.827 38.122 132.046 39.6841 134.099 39.6841C136.151 39.6841 137.372 38.122 137.372 35.4443H137.372Z" fill="white"/>
<path d="M142.04 29.2652H144.456V31.3685H144.515C144.678 30.7116 145.062 30.1311 145.603 29.7245C146.143 29.3179 146.807 29.1101 147.483 29.1359C147.775 29.1349 148.066 29.1667 148.351 29.2306V31.603C147.982 31.4903 147.598 31.4385 147.213 31.4498C146.845 31.4348 146.478 31.4998 146.137 31.6402C145.797 31.7806 145.491 31.9932 145.24 32.2633C144.989 32.5334 144.8 32.8546 144.685 33.2049C144.57 33.5552 144.532 33.9263 144.573 34.2927V41.622H142.04L142.04 29.2652Z" fill="white"/>
<path d="M160.029 37.9927C159.689 40.2359 157.507 41.7753 154.716 41.7753C151.126 41.7753 148.898 39.3669 148.898 35.5029C148.898 31.627 151.138 29.1133 154.609 29.1133C158.023 29.1133 160.17 31.4618 160.17 35.2084V36.0774H151.455V36.2307C151.415 36.6854 151.472 37.1436 151.622 37.5746C151.772 38.0057 152.012 38.3998 152.326 38.7309C152.64 39.0619 153.021 39.3223 153.443 39.4947C153.865 39.6671 154.319 39.7475 154.774 39.7307C155.373 39.7869 155.974 39.6481 156.487 39.3349C157.001 39.0218 157.399 38.551 157.624 37.9927L160.029 37.9927ZM151.467 34.3047H157.636C157.659 33.8958 157.597 33.4866 157.454 33.1028C157.312 32.719 157.091 32.3689 156.807 32.0744C156.523 31.7799 156.181 31.5474 155.803 31.3915C155.425 31.2357 155.018 31.1597 154.609 31.1685C154.197 31.1661 153.788 31.2454 153.406 31.402C153.025 31.5586 152.678 31.7894 152.386 32.081C152.093 32.3725 151.862 32.7192 151.704 33.1008C151.546 33.4825 151.466 33.8917 151.467 34.3047V34.3047Z" fill="white"/>
<path d="M62.4983 11.9162C63.0293 11.8781 63.5622 11.9584 64.0585 12.1514C64.5548 12.3445 65.0021 12.6454 65.3681 13.0325C65.7342 13.4196 66.0099 13.8832 66.1754 14.3899C66.3409 14.8967 66.392 15.4338 66.325 15.9627C66.325 18.5645 64.9208 20.06 62.4983 20.06H59.5608V11.9162H62.4983ZM60.8239 18.9083H62.3572C62.7367 18.931 63.1164 18.8687 63.4688 18.7259C63.8212 18.5831 64.1373 18.3635 64.3942 18.0829C64.6511 17.8023 64.8423 17.4679 64.9539 17.104C65.0655 16.7402 65.0946 16.3559 65.0392 15.9793C65.0906 15.6042 65.0585 15.2224 64.9452 14.8612C64.8319 14.4999 64.6403 14.1683 64.3839 13.89C64.1276 13.6116 63.813 13.3935 63.4626 13.2512C63.1122 13.109 62.7347 13.0461 62.3572 13.0671H60.8239V18.9083Z" fill="white"/>
<path d="M67.752 16.9844C67.7134 16.5805 67.7595 16.173 67.8874 15.788C68.0153 15.403 68.2222 15.0491 68.4947 14.7488C68.7672 14.4486 69.0994 14.2087 69.4699 14.0445C69.8404 13.8804 70.2411 13.7956 70.6463 13.7956C71.0514 13.7956 71.4521 13.8804 71.8227 14.0445C72.1932 14.2087 72.5253 14.4486 72.7979 14.7488C73.0704 15.0491 73.2772 15.403 73.4051 15.788C73.533 16.173 73.5792 16.5805 73.5406 16.9844C73.5799 17.3887 73.5343 17.7967 73.4067 18.1823C73.2792 18.5679 73.0725 18.9225 72.7999 19.2234C72.5273 19.5242 72.1949 19.7646 71.824 19.9291C71.4531 20.0936 71.0519 20.1786 70.6463 20.1786C70.2406 20.1786 69.8395 20.0936 69.4686 19.9291C69.0977 19.7646 68.7653 19.5242 68.4927 19.2234C68.2201 18.9225 68.0134 18.5679 67.8858 18.1823C67.7582 17.7967 67.7127 17.3887 67.752 16.9844ZM72.2947 16.9844C72.2947 15.6522 71.6971 14.8731 70.6483 14.8731C69.5954 14.8731 69.0032 15.6522 69.0032 16.9844C69.0032 18.3272 69.5955 19.1003 70.6483 19.1003C71.6971 19.1003 72.2947 18.3219 72.2947 16.9844H72.2947Z" fill="white"/>
<path d="M81.235 20.0599H79.9785L78.71 15.5335H78.6142L77.3511 20.0599H76.1066L74.4148 13.9141H75.6434L76.7428 18.6037H76.8333L78.0951 13.9141H79.2571L80.5189 18.6037H80.6147L81.7088 13.9141H82.92L81.235 20.0599Z" fill="white"/>
<path d="M84.3427 13.9142H85.5086V14.8905H85.5991C85.7527 14.5398 86.0117 14.2459 86.34 14.0496C86.6683 13.8533 87.0495 13.7645 87.4306 13.7955C87.7292 13.7731 88.0291 13.8181 88.308 13.9275C88.5868 14.0368 88.8375 14.2075 89.0416 14.4271C89.2456 14.6466 89.3976 14.9093 89.4865 15.1956C89.5754 15.482 89.5988 15.7847 89.5549 16.0814V20.0599H88.3437V16.3859C88.3437 15.3983 87.9151 14.9071 87.0193 14.9071C86.8166 14.8977 86.6142 14.9322 86.426 15.0084C86.2379 15.0846 86.0684 15.2007 85.9292 15.3486C85.79 15.4965 85.6844 15.6729 85.6196 15.8655C85.5548 16.0581 85.5324 16.2625 85.5539 16.4646V20.0599H84.3427L84.3427 13.9142Z" fill="white"/>
<path d="M91.485 11.515H92.6962V20.0599H91.485V11.515Z" fill="white"/>
<path d="M94.3802 16.9844C94.3416 16.5804 94.3878 16.1729 94.5157 15.7879C94.6437 15.4029 94.8506 15.049 95.1231 14.7487C95.3956 14.4485 95.7278 14.2086 96.0984 14.0444C96.4689 13.8803 96.8696 13.7955 97.2748 13.7955C97.68 13.7955 98.0807 13.8803 98.4513 14.0444C98.8218 14.2086 99.154 14.4485 99.4266 14.7487C99.6991 15.049 99.906 15.4029 100.034 15.7879C100.162 16.1729 100.208 16.5804 100.169 16.9844C100.209 17.3887 100.163 17.7967 100.035 18.1823C99.9079 18.5679 99.7011 18.9225 99.4285 19.2233C99.1559 19.5242 98.8235 19.7646 98.4526 19.9291C98.0817 20.0936 97.6805 20.1785 97.2748 20.1785C96.8692 20.1785 96.468 20.0936 96.0971 19.9291C95.7262 19.7646 95.3937 19.5242 95.1211 19.2233C94.8485 18.9225 94.6418 18.5679 94.5142 18.1823C94.3866 17.7967 94.3409 17.3887 94.3802 16.9844ZM98.923 16.9844C98.923 15.6522 98.3253 14.8731 97.2765 14.8731C96.2237 14.8731 95.6314 15.6522 95.6314 16.9844C95.6314 18.3272 96.2237 19.1003 97.2765 19.1003C98.3253 19.1002 98.923 18.3219 98.923 16.9844H98.923Z" fill="white"/>
<path d="M101.445 18.3219C101.445 17.2156 102.267 16.5778 103.727 16.4872L105.39 16.3912V15.8608C105.39 15.2117 104.961 14.8451 104.133 14.8451C103.457 14.8451 102.989 15.0937 102.854 15.5282H101.681C101.805 14.4726 102.797 13.7955 104.189 13.7955C105.728 13.7955 106.596 14.5626 106.596 15.8608V20.0599H105.43V19.1962H105.334C105.139 19.506 104.866 19.7586 104.542 19.9281C104.218 20.0976 103.855 20.1781 103.49 20.1612C103.233 20.188 102.972 20.1605 102.726 20.0804C102.48 20.0002 102.253 19.8693 102.06 19.696C101.867 19.5227 101.713 19.3109 101.607 19.0742C101.501 18.8376 101.446 18.5813 101.445 18.3219ZM105.39 17.7967V17.2829L103.891 17.3789C103.046 17.4355 102.662 17.7234 102.662 18.2652C102.662 18.8183 103.142 19.1402 103.8 19.1402C103.994 19.1598 104.189 19.1403 104.374 19.0828C104.559 19.0254 104.731 18.9312 104.88 18.8058C105.028 18.6805 105.149 18.5266 105.237 18.3532C105.325 18.1798 105.377 17.9906 105.39 17.7967Z" fill="white"/>
<path d="M108.188 16.9844C108.188 15.0424 109.185 13.8122 110.735 13.8122C111.119 13.7945 111.5 13.8865 111.833 14.0774C112.166 14.2684 112.438 14.5503 112.617 14.8904H112.708V11.515H113.919V20.0599H112.758V19.0889H112.663C112.47 19.4267 112.188 19.7052 111.848 19.8942C111.509 20.0832 111.124 20.1755 110.735 20.1612C109.174 20.1612 108.188 18.931 108.188 16.9844ZM109.439 16.9844C109.439 18.2879 110.053 19.0723 111.079 19.0723C112.1 19.0723 112.731 18.2766 112.731 16.9897C112.731 15.7088 112.093 14.9018 111.079 14.9018C110.059 14.9018 109.439 15.6915 109.439 16.9844H109.439Z" fill="white"/>
<path d="M118.93 16.9844C118.891 16.5805 118.938 16.173 119.066 15.788C119.193 15.403 119.4 15.0491 119.673 14.7488C119.945 14.4486 120.277 14.2087 120.648 14.0445C121.019 13.8804 121.419 13.7956 121.824 13.7956C122.23 13.7956 122.63 13.8804 123.001 14.0445C123.371 14.2087 123.703 14.4486 123.976 14.7488C124.248 15.0491 124.455 15.403 124.583 15.788C124.711 16.173 124.757 16.5805 124.719 16.9844C124.758 17.3887 124.712 17.7967 124.585 18.1823C124.457 18.5679 124.251 18.9225 123.978 19.2234C123.705 19.5242 123.373 19.7646 123.002 19.9291C122.631 20.0936 122.23 20.1786 121.824 20.1786C121.419 20.1786 121.018 20.0936 120.647 19.9291C120.276 19.7646 119.943 19.5242 119.671 19.2234C119.398 18.9225 119.191 18.5679 119.064 18.1823C118.936 17.7967 118.891 17.3887 118.93 16.9844ZM123.473 16.9844C123.473 15.6522 122.875 14.8731 121.826 14.8731C120.774 14.8731 120.181 15.6522 120.181 16.9844C120.181 18.3272 120.774 19.1003 121.826 19.1003C122.875 19.1003 123.473 18.3219 123.473 16.9844Z" fill="white"/>
<path d="M126.344 13.9142H127.51V14.8905H127.6C127.754 14.5398 128.013 14.2459 128.341 14.0496C128.669 13.8533 129.051 13.7645 129.432 13.7955C129.73 13.7731 130.03 13.8181 130.309 13.9275C130.588 14.0368 130.839 14.2075 131.043 14.4271C131.247 14.6466 131.399 14.9093 131.488 15.1956C131.577 15.482 131.6 15.7847 131.556 16.0814V20.0599H130.345V16.3859C130.345 15.3983 129.916 14.9071 129.02 14.9071C128.818 14.8977 128.615 14.9322 128.427 15.0084C128.239 15.0846 128.07 15.2007 127.93 15.3486C127.791 15.4965 127.686 15.6729 127.621 15.8655C127.556 16.0581 127.534 16.2625 127.555 16.4646V20.0599H126.344V13.9142Z" fill="white"/>
<path d="M138.4 12.384V13.9421H139.73V14.9638H138.4V18.1239C138.4 18.7677 138.665 19.0496 139.268 19.0496C139.423 19.0491 139.577 19.0398 139.73 19.0216V20.0319C139.513 20.0709 139.292 20.0916 139.071 20.0939C137.724 20.0939 137.188 19.6194 137.188 18.4345V14.9637H136.214V13.9421H137.188V12.384H138.4Z" fill="white"/>
<path d="M141.384 11.515H142.585V14.9018H142.681C142.842 14.5479 143.108 14.2522 143.443 14.0552C143.778 13.8582 144.165 13.7694 144.552 13.8009C144.849 13.7847 145.146 13.8343 145.422 13.9463C145.697 14.0583 145.945 14.2298 146.147 14.4486C146.349 14.6675 146.5 14.9282 146.59 15.2123C146.679 15.4964 146.705 15.7967 146.666 16.092V20.0599H145.453V16.3912C145.453 15.4096 144.997 14.9124 144.141 14.9124C143.933 14.8953 143.723 14.924 143.527 14.9964C143.331 15.0688 143.154 15.1832 143.006 15.3316C142.859 15.48 142.746 15.6589 142.675 15.8556C142.604 16.0523 142.577 16.2622 142.596 16.4705V20.0599H141.384L141.384 11.515Z" fill="white"/>
<path d="M153.728 18.4005C153.564 18.9622 153.207 19.448 152.721 19.7731C152.235 20.0981 151.65 20.2416 151.069 20.1785C150.664 20.1892 150.263 20.1116 149.891 19.9512C149.52 19.7908 149.188 19.5514 148.918 19.2496C148.648 18.9478 148.447 18.5908 148.329 18.2034C148.211 17.8161 148.178 17.4076 148.234 17.0063C148.18 16.6039 148.213 16.1945 148.331 15.806C148.449 15.4175 148.649 15.0588 148.917 14.7544C149.185 14.4499 149.516 14.2067 149.886 14.0413C150.256 13.8759 150.658 13.7921 151.063 13.7955C152.771 13.7955 153.801 14.9638 153.801 16.8937V17.3169H149.468V17.3849C149.449 17.6104 149.477 17.8374 149.551 18.0514C149.624 18.2653 149.742 18.4614 149.896 18.6272C150.05 18.793 150.237 18.9247 150.444 19.014C150.652 19.1032 150.876 19.148 151.102 19.1455C151.392 19.1803 151.685 19.1281 151.945 18.9954C152.205 18.8628 152.42 18.6557 152.562 18.4005L153.728 18.4005ZM149.468 16.4199H152.567C152.583 16.2136 152.555 16.0064 152.485 15.8117C152.416 15.6169 152.306 15.4388 152.164 15.2888C152.022 15.1389 151.85 15.0204 151.659 14.941C151.468 14.8616 151.263 14.8231 151.057 14.8278C150.847 14.8252 150.639 14.8646 150.445 14.9436C150.251 15.0227 150.075 15.1399 149.927 15.2883C149.779 15.4367 149.662 15.6132 149.583 15.8076C149.504 16.0019 149.465 16.2101 149.468 16.4199H149.468Z" fill="white"/>
</g>
<defs>
<clipPath id="clip0">
<rect width="184" height="54.5934" fill="white"/>
</clipPath>
</defs>
</svg>
