<svg width="184" height="55" viewBox="0 0 184 55" fill="none" xmlns="http://www.w3.org/2000/svg">
<g clip-path="url(#clip0)">
<path d="M177.185 0H6.81481C3.0511 0 0 3.04571 0 6.80278V47.6195C0 51.3766 3.0511 54.4223 6.81481 54.4223H177.185C180.949 54.4223 184 51.3766 184 47.6195V6.80278C184 3.04571 180.949 0 177.185 0Z" fill="#303030"/>
<path d="M177.185 1.08836C178.703 1.09011 180.158 1.69275 181.231 2.76408C182.304 3.83541 182.908 5.28793 182.91 6.80297V47.6197C182.908 49.1347 182.304 50.5872 181.231 51.6585C180.158 52.7298 178.703 53.3325 177.185 53.3343H6.81481C5.29709 53.3325 3.84203 52.7299 2.76886 51.6586C1.69569 50.5872 1.09205 49.1347 1.09037 47.6197V6.80297C1.09202 5.28791 1.69565 3.83538 2.76883 2.76404C3.84201 1.69271 5.29708 1.09008 6.81481 1.08836H177.185ZM177.185 0.000183105H6.81481C5.00904 0.00545948 3.27873 0.723873 2.00185 1.9985C0.72497 3.27313 0.0052857 5.00038 0 6.80297L0 47.6197C0.0052857 49.4222 0.72497 51.1495 2.00185 52.4241C3.27873 53.6988 5.00904 54.4172 6.81481 54.4224H177.185C178.991 54.4172 180.721 53.6988 181.998 52.4241C183.275 51.1495 183.995 49.4222 184 47.6197V6.80297C183.995 5.00038 183.275 3.27313 181.998 1.9985C180.721 0.723873 178.991 0.00545948 177.185 0.000183105Z" fill="#303030"/>
<path d="M64.6285 13.9366C64.6533 14.4359 64.576 14.9349 64.4014 15.4034C64.2268 15.8719 63.9585 16.3 63.6128 16.6617C63.2255 17.0627 62.7576 17.3776 62.24 17.5857C61.7223 17.7939 61.1664 17.8905 60.6087 17.8694C60.0475 17.8745 59.4909 17.7674 58.9717 17.5547C58.4525 17.3419 57.9811 17.0276 57.5853 16.6304C57.1895 16.2332 56.8772 15.761 56.6668 15.2415C56.4565 14.7221 56.3522 14.166 56.3602 13.6057C56.3523 13.0455 56.4566 12.4893 56.6669 11.9699C56.8773 11.4505 57.1896 10.9782 57.5854 10.581C57.9812 10.1837 58.4525 9.86939 58.9717 9.65651C59.4909 9.44363 60.0475 9.33648 60.6087 9.34134C61.1858 9.3396 61.7571 9.45607 62.2872 9.68353C62.7796 9.88277 63.2179 10.1953 63.5664 10.5956L62.8475 11.3137C62.5736 10.9919 62.2293 10.7372 61.8411 10.5693C61.4529 10.4013 61.0313 10.3246 60.6087 10.3452C60.1834 10.343 59.7619 10.4265 59.3697 10.5907C58.9774 10.755 58.6224 10.9965 58.3259 11.301C58.0294 11.6054 57.7975 11.9664 57.6441 12.3625C57.4906 12.7585 57.4189 13.1814 57.433 13.6057C57.4229 14.2414 57.6021 14.8657 57.9478 15.3996C58.2936 15.9334 58.7904 16.3528 59.3753 16.6044C59.9601 16.856 60.6066 16.9286 61.2329 16.813C61.8591 16.6974 62.4368 16.3987 62.8928 15.9549C63.3124 15.5035 63.5557 14.9167 63.5782 14.3013H60.6087V13.3207H64.5713C64.6087 13.5239 64.6279 13.73 64.6285 13.9366Z" fill="white" stroke="white" stroke-width="0.2" stroke-miterlimit="10"/>
<path d="M70.9122 10.5271H67.188V13.1153H70.5462V14.0959H67.188V16.6841H70.9122V17.6873H66.1378V9.52393H70.9122V10.5271Z" fill="white" stroke="white" stroke-width="0.2" stroke-miterlimit="10"/>
<path d="M75.343 17.6873H74.2915V10.5271H72.0074V9.52393H77.6271V10.5271H75.343V17.6873Z" fill="white" stroke="white" stroke-width="0.2" stroke-miterlimit="10"/>
<path d="M81.6928 17.6873V9.52393H82.743V17.6873H81.6928Z" fill="white" stroke="white" stroke-width="0.2" stroke-miterlimit="10"/>
<path d="M87.4047 17.6873H86.3532V10.5271H84.0693V9.52393H89.6888V10.5271H87.4047V17.6873Z" fill="white" stroke="white" stroke-width="0.2" stroke-miterlimit="10"/>
<path d="M100.328 16.6324C99.5315 17.4246 98.4534 17.8694 97.3294 17.8694C96.2054 17.8694 95.1273 17.4246 94.3313 16.6324C93.9375 16.2343 93.628 15.7611 93.421 15.2412C93.2141 14.7212 93.114 14.165 93.1267 13.6057C93.114 13.0464 93.2141 12.4902 93.421 11.9702C93.628 11.4503 93.9375 10.9771 94.3313 10.579C94.7247 10.1862 95.1919 9.87464 95.7061 9.66226C96.2203 9.44988 96.7714 9.34082 97.3278 9.34131C97.8843 9.3418 98.4352 9.45184 98.949 9.66514C99.4628 9.87843 99.9295 10.1908 100.322 10.5843C100.716 10.9814 101.026 11.4535 101.234 11.9725C101.442 12.4915 101.543 13.0469 101.532 13.6057C101.544 14.165 101.444 14.7211 101.237 15.241C101.03 15.7609 100.721 16.2341 100.328 16.6324ZM95.1072 15.9489C95.6968 16.5363 96.4957 16.8663 97.3287 16.8663C98.1617 16.8663 98.9607 16.5363 99.5502 15.9489C99.8525 15.6399 100.089 15.273 100.245 14.8702C100.401 14.4675 100.474 14.0373 100.459 13.6057C100.474 13.1741 100.401 12.7439 100.245 12.3412C100.089 11.9384 99.8525 11.5715 99.5502 11.2626C98.9607 10.6751 98.1617 10.3451 97.3287 10.3451C96.4957 10.3451 95.6968 10.6751 95.1072 11.2626C94.8053 11.5718 94.5693 11.9388 94.4133 12.3415C94.2573 12.7441 94.1846 13.1742 94.1995 13.6057C94.1846 14.0372 94.2573 14.4673 94.4133 14.87C94.5693 15.2726 94.8053 15.6397 95.1072 15.9489Z" fill="white" stroke="white" stroke-width="0.2" stroke-miterlimit="10"/>
<path d="M103.006 17.6873V9.52393H104.285L108.259 15.8743H108.305L108.259 14.3011V9.52393H109.311V17.6873H108.214L104.056 11.0292H104.011L104.056 12.6025V17.6873H103.006Z" fill="white" stroke="white" stroke-width="0.2" stroke-miterlimit="10"/>
<path d="M92.8658 29.5944C91.7203 29.5987 90.6016 29.9418 89.6512 30.5803C88.7008 31.2188 87.9612 32.124 87.5259 33.1818C87.0905 34.2396 86.9788 35.4024 87.205 36.5234C87.4311 37.6445 87.985 38.6735 88.7966 39.4806C89.6082 40.2877 90.6411 40.8366 91.765 41.0581C92.8889 41.2796 94.0533 41.1638 95.1113 40.7251C96.1693 40.2865 97.0733 39.5448 97.7093 38.5936C98.3453 37.6425 98.6847 36.5245 98.6847 35.381C98.696 34.6161 98.553 33.8568 98.2643 33.1482C97.9756 32.4396 97.547 31.7962 97.0041 31.2563C96.4612 30.7165 95.8151 30.2911 95.1042 30.0056C94.3932 29.7201 93.632 29.5802 92.8658 29.5944ZM92.8658 38.8881C92.1603 38.9383 91.456 38.7753 90.8446 38.4204C90.2332 38.0654 89.743 37.5349 89.4379 36.898C89.1327 36.261 89.0267 35.5471 89.1337 34.8492C89.2407 34.1513 89.5557 33.5017 90.0377 32.985C90.5197 32.4683 91.1464 32.1084 91.8362 31.9522C92.526 31.796 93.2469 31.8508 93.905 32.1093C94.5632 32.3678 95.1282 32.8182 95.5263 33.4017C95.9245 33.9852 96.1375 34.6749 96.1375 35.381C96.1589 35.827 96.0907 36.2728 95.9369 36.6922C95.7831 37.1115 95.5468 37.4959 95.242 37.8227C94.9371 38.1495 94.5698 38.4121 94.1618 38.5951C93.7537 38.778 93.3131 38.8777 92.8658 38.8881ZM80.172 29.5944C79.0264 29.5987 77.9078 29.9417 76.9574 30.5802C76.007 31.2187 75.2673 32.1239 74.8319 33.1817C74.3965 34.2395 74.2849 35.4023 74.511 36.5233C74.7371 37.6444 75.291 38.6735 76.1026 39.4806C76.9141 40.2877 77.9471 40.8366 79.071 41.0581C80.1949 41.2796 81.3594 41.1638 82.4173 40.7251C83.4753 40.2865 84.3794 39.5448 85.0154 38.5936C85.6514 37.6425 85.9908 36.5245 85.9908 35.381C86.002 34.6161 85.8591 33.8568 85.5703 33.1482C85.2816 32.4396 84.8531 31.7963 84.3102 31.2564C83.7673 30.7165 83.1212 30.2912 82.4103 30.0056C81.6994 29.7201 80.9382 29.5803 80.172 29.5944ZM80.172 38.8881C79.4665 38.9383 78.7622 38.7753 78.1508 38.4204C77.5394 38.0654 77.0492 37.5349 76.744 36.898C76.4389 36.261 76.3329 35.5471 76.4399 34.8492C76.5469 34.1513 76.8619 33.5017 77.3439 32.985C77.8259 32.4683 78.4526 32.1084 79.1424 31.9522C79.8322 31.796 80.553 31.8508 81.2112 32.1093C81.8694 32.3678 82.4343 32.8182 82.8325 33.4017C83.2307 33.9852 83.4437 34.6749 83.4437 35.381C83.4651 35.827 83.3969 36.2728 83.2431 36.6922C83.0893 37.1115 82.853 37.4959 82.5482 37.8227C82.2433 38.1495 81.876 38.4121 81.4679 38.5951C81.0599 38.7781 80.6192 38.8777 80.172 38.8881ZM65.072 31.3699V33.8248H70.9569C70.872 34.9762 70.4 36.0653 69.6174 36.9154C69.0276 37.5155 68.3184 37.9854 67.5355 38.295C66.7526 38.6046 65.9134 38.7469 65.072 38.7127C63.3519 38.6895 61.7102 37.991 60.5021 36.7686C59.2939 35.5462 58.6166 33.898 58.6166 32.1808C58.6166 30.4636 59.2939 28.8155 60.5021 27.593C61.7102 26.3706 63.3519 25.6722 65.072 25.6489C66.7242 25.6274 68.3182 26.2575 69.5077 27.4024L71.2423 25.6708C70.4307 24.8688 69.4669 24.2366 68.4074 23.8112C67.3478 23.3859 66.2139 23.176 65.072 23.1939C63.8787 23.1766 62.6939 23.3962 61.5864 23.8401C60.4789 24.2839 59.4709 24.9431 58.6209 25.7794C57.7709 26.6156 57.0959 27.6122 56.6352 28.7111C56.1745 29.8101 55.9372 30.9895 55.9372 32.1808C55.9372 33.3721 56.1745 34.5515 56.6352 35.6505C57.0959 36.7495 57.7709 37.746 58.6209 38.5823C59.4709 39.4185 60.4789 40.0777 61.5864 40.5215C62.6939 40.9654 63.8787 41.185 65.072 41.1677C66.238 41.216 67.4009 41.0162 68.4836 40.5816C69.5663 40.147 70.5441 39.4875 71.352 38.647C72.7864 37.0841 73.551 35.0228 73.4821 32.9042C73.4877 32.3897 73.4435 31.8759 73.3501 31.3699H65.072ZM126.826 33.2767C126.477 32.2286 125.814 31.3129 124.926 30.6541C124.038 29.9953 122.969 29.6253 121.863 29.5944C121.118 29.599 120.382 29.7543 119.699 30.051C119.016 30.3476 118.401 30.7795 117.889 31.3203C117.378 31.8612 116.983 32.4999 116.726 33.1979C116.469 33.8958 116.357 34.6385 116.396 35.381C116.379 36.1418 116.516 36.8981 116.798 37.6049C117.081 38.3117 117.503 38.9543 118.04 39.4944C118.577 40.0346 119.218 40.4611 119.924 40.7486C120.63 41.0361 121.386 41.1786 122.149 41.1677C123.104 41.173 124.045 40.9414 124.888 40.4938C125.731 40.0462 126.45 39.3965 126.979 38.6032L125.003 37.2881C124.707 37.7789 124.288 38.1844 123.788 38.4649C123.287 38.7454 122.722 38.8912 122.149 38.8881C121.558 38.9106 120.974 38.7555 120.473 38.4428C119.972 38.1302 119.576 37.6744 119.338 37.1346L127.089 33.9344L126.826 33.2767ZM118.921 35.2057C118.893 34.7846 118.951 34.3622 119.089 33.9633C119.227 33.5645 119.444 33.1971 119.726 32.8828C120.008 32.5685 120.35 32.3135 120.732 32.1327C121.114 31.952 121.528 31.8491 121.951 31.8302C122.391 31.8013 122.829 31.9023 123.212 32.1206C123.595 32.3389 123.904 32.6648 124.103 33.0577L118.921 35.2057ZM112.619 40.8169H115.166V23.8078H112.619V40.8169ZM108.447 30.8876H108.359C107.972 30.4676 107.499 30.135 106.973 29.912C106.446 29.689 105.878 29.5807 105.307 29.5944C103.812 29.6579 102.4 30.2953 101.364 31.3736C100.329 32.4518 99.7513 33.8876 99.7513 35.381C99.7513 36.8745 100.329 38.3102 101.364 39.3885C102.4 40.4668 103.812 41.1042 105.307 41.1677C105.881 41.1829 106.451 41.0732 106.978 40.8461C107.505 40.6189 107.976 40.2799 108.359 39.8526H108.447V40.6855C108.447 42.8994 107.261 44.083 105.351 44.083C104.714 44.0677 104.096 43.8637 103.576 43.4967C103.056 43.1298 102.657 42.6166 102.43 42.0225L100.212 42.9432C100.63 43.9591 101.343 44.8273 102.258 45.4365C103.174 46.0457 104.25 46.3681 105.351 46.3626C108.337 46.3626 110.862 44.6091 110.862 40.3348V29.945H108.447V30.8876ZM105.526 38.8881C104.646 38.8136 103.826 38.4118 103.228 37.7623C102.63 37.1129 102.298 36.263 102.298 35.381C102.298 34.4991 102.63 33.6492 103.228 32.9997C103.826 32.3503 104.646 31.9485 105.526 31.874C105.964 31.8953 106.394 32.0045 106.788 32.195C107.183 32.3854 107.536 32.6533 107.825 32.9826C108.113 33.3119 108.333 33.6959 108.47 34.1117C108.607 34.5276 108.659 34.9667 108.622 35.4029C108.657 35.8364 108.603 36.2723 108.464 36.6847C108.326 37.097 108.106 37.4772 107.817 37.8026C107.528 38.1279 107.176 38.3918 106.782 38.5783C106.389 38.7648 105.962 38.8702 105.526 38.8881ZM138.757 23.8081H132.663V40.8169H135.206V34.3728H138.757C139.476 34.4122 140.196 34.3047 140.872 34.057C141.549 33.8094 142.167 33.4266 142.69 32.9323C143.213 32.4379 143.63 31.8422 143.915 31.1817C144.2 30.5211 144.347 29.8096 144.347 29.0904C144.347 28.3713 144.2 27.6598 143.915 26.9992C143.63 26.3387 143.213 25.743 142.69 25.2486C142.167 24.7542 141.549 24.3715 140.872 24.1238C140.196 23.8762 139.476 23.7687 138.757 23.8081ZM138.822 32.0057H135.206V26.1753H138.822C139.211 26.1673 139.597 26.2367 139.959 26.3796C140.32 26.5225 140.649 26.736 140.927 27.0075C141.205 27.279 141.425 27.603 141.576 27.9607C141.726 28.3184 141.804 28.7025 141.804 29.0905C141.804 29.4785 141.726 29.8626 141.576 30.2203C141.425 30.578 141.205 30.9021 140.927 31.1736C140.649 31.4451 140.32 31.6585 139.959 31.8014C139.597 31.9443 139.211 32.0137 138.822 32.0057ZM154.54 29.5631C153.612 29.509 152.688 29.7266 151.882 30.1892C151.076 30.6517 150.422 31.3392 150.002 32.1671L152.26 33.108C152.484 32.6971 152.823 32.3603 153.236 32.1387C153.648 31.9172 154.117 31.8205 154.584 31.8607C155.229 31.7978 155.872 31.9928 156.374 32.403C156.875 32.8132 157.193 33.405 157.258 34.0489V34.224C156.441 33.7908 155.53 33.5654 154.605 33.5675C152.172 33.5675 149.695 34.9023 149.695 37.3969C149.719 37.9226 149.848 38.4383 150.075 38.9132C150.302 39.3881 150.623 39.8127 151.017 40.1617C151.412 40.5107 151.873 40.777 152.372 40.9448C152.872 41.1127 153.4 41.1786 153.926 41.1387C154.566 41.1763 155.205 41.0419 155.776 40.7494C156.346 40.4569 156.828 40.0171 157.17 39.4757H157.258V40.7886H159.713V34.2678C159.713 31.248 157.455 29.5631 154.54 29.5631ZM154.233 38.8848C153.4 38.8848 152.238 38.4692 152.238 37.4406C152.238 36.1278 153.685 35.6244 154.934 35.6244C155.746 35.6028 156.548 35.7993 157.258 36.1934C157.165 36.9311 156.807 37.6101 156.251 38.1049C155.694 38.5997 154.978 38.8767 154.233 38.8848ZM168.657 29.9351L165.741 37.3093H165.653L162.629 29.9351H159.888L164.426 40.2416L161.839 45.9747H164.492L171.485 29.9351H168.657ZM145.749 40.8169H148.292V23.8081H145.749V40.8169Z" fill="white"/>
<path d="M14.2225 10.256C13.7756 10.7894 13.5499 11.4733 13.5917 12.1674V42.2577C13.5498 42.9518 13.7755 43.6357 14.2225 44.1691L14.3234 44.2672L31.2091 27.4114V27.0137L14.3234 10.1572L14.2225 10.256Z" fill="url(#paint0_linear)"/>
<path d="M36.8376 33.0324L31.2094 27.4114V27.0137L36.8389 21.3941L36.9658 21.4664L43.6345 25.2488C45.5394 26.3291 45.5394 28.0968 43.6345 29.1777L36.9658 32.9602L36.8376 33.0324Z" fill="url(#paint1_linear)"/>
<path d="M36.9659 32.9596L31.2094 27.2127L14.2228 44.1692C14.6109 44.5109 15.1066 44.7063 15.6239 44.7216C16.1412 44.7368 16.6475 44.571 17.0552 44.2527L36.9659 32.9596Z" fill="url(#paint2_linear)"/>
<path d="M36.9659 21.4656L17.0552 10.1724C16.6475 9.85421 16.1412 9.68835 15.6239 9.7036C15.1066 9.71886 14.6109 9.91427 14.2228 10.256L31.2094 27.2126L36.9659 21.4656Z" fill="url(#paint3_linear)"/>
<path opacity="0.2" d="M36.839 32.8329L17.0552 44.0539C16.6632 44.3517 16.1848 44.5142 15.6922 44.5169C15.1996 44.5195 14.7195 44.3621 14.3243 44.0684L14.2228 44.1698L14.3237 44.2679L14.3243 44.2672C14.7194 44.561 15.1995 44.7185 15.6922 44.7159C16.1849 44.7133 16.6633 44.5507 17.0552 44.2526L36.9659 32.9595L36.839 32.8329Z" fill="#303030"/>
<path opacity="0.12" d="M14.2225 43.9711C13.7756 43.4376 13.55 42.7538 13.5917 42.0596V42.2584C13.5499 42.9526 13.7756 43.6364 14.2225 44.1699L14.3241 44.0685L14.2225 43.9711Z" fill="#303030"/>
<path opacity="0.12" d="M43.6351 28.9781L36.8395 32.8329L36.9664 32.9594L43.6351 29.1769C44.0274 29.007 44.3669 28.7351 44.6182 28.3897C44.8695 28.0444 45.0234 27.638 45.0639 27.2131C44.9796 27.5979 44.8066 27.9578 44.5586 28.2642C44.3105 28.5706 43.9944 28.815 43.6351 28.9781Z" fill="#303030"/>
<path opacity="0.25" d="M17.056 10.372L43.6354 25.4469C43.9948 25.61 44.3111 25.8545 44.5591 26.1611C44.8071 26.4676 44.9801 26.8277 45.0642 27.2127C45.024 26.7876 44.8702 26.381 44.6188 26.0355C44.3675 25.6899 44.0279 25.418 43.6354 25.2482L17.056 10.1732C15.1511 9.09278 13.5929 9.9902 13.5929 12.1682V12.367C13.5929 10.1891 15.1511 9.29169 17.056 10.372Z" fill="white"/>
</g>
<defs>
<linearGradient id="paint0_linear" x1="29.7117" y1="11.8502" x2="6.87831" y2="34.7239" gradientUnits="userSpaceOnUse">
<stop stop-color="#00A0FF"/>
<stop offset="0.00657" stop-color="#00A1FF"/>
<stop offset="0.2601" stop-color="#00BEFF"/>
<stop offset="0.5122" stop-color="#00D2FF"/>
<stop offset="0.7604" stop-color="#00DFFF"/>
<stop offset="1" stop-color="#00E3FF"/>
</linearGradient>
<linearGradient id="paint1_linear" x1="46.1147" y1="27.2133" x2="13.1352" y2="27.2133" gradientUnits="userSpaceOnUse">
<stop stop-color="#FFE000"/>
<stop offset="0.4087" stop-color="#FFBD00"/>
<stop offset="0.7754" stop-color="#FFA500"/>
<stop offset="1" stop-color="#FF9C00"/>
</linearGradient>
<linearGradient id="paint2_linear" x1="33.838" y1="30.3353" x2="2.87409" y2="61.354" gradientUnits="userSpaceOnUse">
<stop stop-color="#FF3A44"/>
<stop offset="1" stop-color="#C31162"/>
</linearGradient>
<linearGradient id="paint3_linear" x1="9.94574" y1="0.239816" x2="23.7724" y2="14.0909" gradientUnits="userSpaceOnUse">
<stop stop-color="#32A071"/>
<stop offset="0.0685" stop-color="#2DA771"/>
<stop offset="0.4762" stop-color="#15CF74"/>
<stop offset="0.8009" stop-color="#06E775"/>
<stop offset="1" stop-color="#00F076"/>
</linearGradient>
<clipPath id="clip0">
<rect width="184" height="54.4225" fill="white"/>
</clipPath>
</defs>
</svg>
