<svg width="160" height="160" viewBox="0 0 160 160" fill="none" xmlns="http://www.w3.org/2000/svg">
<circle cx="80" cy="80" r="79.5" stroke="#CCCCCC"/>
<path d="M41.2195 107.673C41.3879 110.878 42.5605 113.949 44.5725 116.455C45.4416 117.621 46.3108 119.378 49.3667 118.494C50.7838 118.083 57.9811 118.639 59.941 116.455C63.0096 117.369 66.2063 117.782 69.4074 117.679C74.5606 117.446 71.534 114.724 69.7509 108.438C67.3616 104.242 65.5202 103.036 59.85 103.27C55.4228 103.776 51.2443 105.574 47.8396 108.438L48.6985 107.776C48.0401 106.688 47.1211 105.78 46.024 105.134C45.3231 104.817 44.3578 105.094 44.8989 106.022" fill="#F9BCA1"/>
<path d="M46.3162 106.016C46.1839 105.72 45.985 105.458 45.7348 105.25C45.4846 105.042 45.1899 104.895 44.8733 104.818C44.2257 104.818 43.9389 105.029 44.5298 105.922" fill="#F9BCA1"/>
<path d="M46.3162 106.016C46.1839 105.72 45.985 105.458 45.7348 105.25C45.4846 105.042 45.1899 104.895 44.8733 104.818C44.2257 104.818 43.9389 105.029 44.5298 105.922" stroke="#EEA78D" stroke-width="0.25" stroke-linecap="round" stroke-linejoin="round"/>
<path d="M45.2431 106.142C45.1083 105.846 44.9052 105.587 44.6505 105.385C44.3958 105.183 44.0968 105.044 43.7778 104.98C42.6921 104.766 42.9481 106.604 43.6678 107.095" fill="#F9BCA1"/>
<path d="M45.2431 106.142C45.1083 105.846 44.9052 105.587 44.6505 105.385C44.3958 105.183 44.0968 105.044 43.7778 104.98C42.6921 104.766 42.9481 106.604 43.6678 107.095" stroke="#EEA78D" stroke-width="0.25" stroke-linecap="round" stroke-linejoin="round"/>
<path d="M44.4203 107.233C44.2846 106.575 43.4274 105.147 42.4208 105.325C41.5517 105.481 41.4125 106.876 42.4208 107.892" fill="#F9BCA1"/>
<path d="M44.4203 107.233C44.2846 106.575 43.4274 105.147 42.4208 105.325C41.5517 105.481 41.4125 106.876 42.4208 107.892" stroke="#EEA78D" stroke-width="0.25" stroke-linecap="round" stroke-linejoin="round"/>
<path d="M43.8636 108.276C43.5888 107.456 42.7282 106.256 42.048 106.198C40.6549 106.121 40.7219 108.536 41.5911 109.593" fill="#F9BCA1"/>
<path d="M43.8636 108.276C43.5888 107.456 42.7282 106.256 42.048 106.198C40.6549 106.121 40.7219 108.536 41.5911 109.593" stroke="#EEA78D" stroke-width="0.25" stroke-linecap="round" stroke-linejoin="round"/>
<g style="mix-blend-mode:multiply" opacity="0.15">
<path d="M41.659 106.249C40.4566 107.267 42.4767 110.587 43.9797 112.618C44.8385 113.783 45.7146 115.541 48.7738 114.656C49.5417 114.434 52.0702 114.499 54.5506 114.052C56.1799 113.685 57.7818 113.205 59.3448 112.618C60.719 112.247 60.2586 114.194 68.8146 113.841C70.2318 113.783 71.0254 113.532 71.4016 113.07C72.604 116.099 73.0454 117.507 69.4073 117.671C66.2062 117.775 63.0095 117.361 59.9409 116.448C57.9792 118.631 50.7819 118.075 49.3665 118.486C46.3089 119.371 45.4398 117.613 44.5723 116.448C42.9195 114.312 41.8033 111.814 41.3172 109.161C40.7967 108.139 40.807 106.567 41.659 106.249Z" fill="#F3AA8E"/>
</g>
<path d="M51.8467 72.3777C51.9669 72.5488 52.0872 72.7011 52.2057 72.8585C52.4943 73.2402 52.7966 73.6372 53.111 73.9948C57.6234 79.488 63.3554 82.6436 69.2781 85.8215C70.3087 86.3737 71.344 86.9332 72.3837 87.5002L78.3786 79.488L80.5927 76.5258C79.7386 76.2132 78.8661 75.9532 77.9801 75.7472C75.4636 75.1209 72.2515 74.5715 69.0136 73.9093C66.7153 73.4438 64.4135 72.915 62.3454 72.2784C61.2469 71.9539 60.1725 71.5537 59.1298 71.0805C58.2534 70.7045 57.4253 70.2254 56.6632 69.6533L56.6151 69.679L53.8238 71.2619L53.762 71.2979L51.8467 72.3777Z" fill="#F9BCA1"/>
<path d="M50.3211 71.2362C49.4846 71.1129 48.052 70.6286 47.7531 71.2071C47.7377 71.2231 47.7276 71.2434 47.7239 71.2652C47.6071 71.563 48.3165 72.2544 49.4416 72.8738C50.5727 73.4953 51.8197 73.8791 53.1056 74.0016C53.6155 74.0461 54.1288 74.034 54.6361 73.9656L55.3008 72.7677L56.1597 71.2071L56.5032 70.5739C56.5815 70.2811 56.6134 69.978 56.5977 69.6755C56.5605 68.8854 56.3172 68.1186 55.8917 67.4508C55.0878 66.0818 53.7806 65.055 53.0643 65.1132C52.0045 65.2073 53.1296 66.7321 53.5092 67.3635C53.555 67.4309 53.593 67.5033 53.6226 67.5791C53.4869 67.5278 53.3014 67.4508 53.0712 67.3567C51.8688 66.8587 49.6632 65.9158 49.1359 66.3008C48.8439 66.5233 49.1839 66.9152 49.6941 67.3156C50.2678 67.7708 51.0528 68.2192 51.3603 68.4433C50.6835 68.2277 48.0966 67.1941 47.5538 67.7486C47.011 68.303 49.3299 69.0885 50.1081 69.5967C49.4656 69.4256 47.3099 69.0834 47.1381 69.6104C46.9663 70.1375 49.3781 70.8289 50.3211 71.2362Z" fill="#F9BCA1"/>
<path d="M53.4135 67.9941C53.0888 68.6055 53.0102 69.3172 53.1937 69.9844C53.3811 70.6424 53.6879 71.2607 54.0989 71.8086" stroke="#F4997D" stroke-width="1.035" stroke-miterlimit="10"/>
<path d="M61.1801 102.942C62.9442 100.491 61.3037 100.406 63.8099 98.7202L99.901 99.8993C101.052 100.62 100.949 102.862 101.67 104.006C102.537 105.246 103.138 106.651 103.433 108.133C103.729 109.615 103.713 111.142 103.388 112.617C102.825 116.144 99.8702 121.003 95.8799 122.517C91.8896 124.032 84.8503 122.733 84.8503 122.733C81.5516 122.585 78.2778 122.091 75.0833 121.258C72.9715 120.828 70.9344 120.093 69.0369 119.074C66.992 118.147 65.2613 116.649 64.0556 114.76C62.7226 112.544 62.8755 110.345 61.6834 108.048C61.4531 107.656 61.2643 107.242 61.1199 106.811C60.8472 106.201 60.7114 105.538 60.7217 104.87C60.7321 104.202 60.8885 103.544 61.1801 102.942Z" fill="#FFF1E6"/>
<path d="M64.0653 98.6983C63.9166 99.9575 64.1552 101.232 64.7497 102.353C65.3441 103.475 66.2663 104.389 67.3942 104.977C69.6685 106.105 72.0899 106.912 74.5881 107.373C77.4106 108.357 80.3263 109.053 83.2901 109.45C87.2288 109.686 93.5604 108.788 97.2466 106.397C95.4138 107.954 93.1983 108.996 90.8275 109.418C92.9506 110.503 96.2675 108.94 98.9008 107.741C100.052 107.217 100.344 113.248 97.8083 112.676C95.273 112.104 95.7299 111.064 93.4385 110.397C92.0995 109.878 90.6664 109.645 89.2315 109.712C87.7966 109.78 86.3917 110.146 85.1075 110.787C81.9428 112.709 79.6023 115.728 78.5354 119.264C78.4968 119.71 78.2825 120.122 77.9394 120.411C77.6297 120.561 77.2794 120.607 76.9414 120.541C74.7515 120.762 72.5398 120.494 70.4672 119.756C72.3962 120.567 70.7129 122.894 72.8085 122.976C72.2159 123.387 78.6866 122.227 78.0922 122.634C82.9698 125.539 88.6824 126.736 94.3213 126.034C97.4076 125.858 100.427 125.066 103.2 123.705C105.988 122.322 108.155 119.948 109.272 117.052C110.459 113.645 109.719 109.892 108.731 106.423C108.323 104.733 107.654 103.116 106.747 101.631C106.289 100.892 105.687 100.252 104.977 99.7473C104.266 99.243 103.462 98.8852 102.611 98.6948" fill="#ECD5CB"/>
<path d="M59.3593 103.023C59.4988 103.675 59.7789 104.289 60.1804 104.822C60.5239 105.204 60.9705 105.462 61.302 105.849C61.5408 106.152 61.7383 106.485 61.8895 106.84L62.8033 108.748C62.4396 107.117 62.4798 105.424 62.9202 103.812C63.2019 105.127 63.4251 106.455 63.5815 107.788C63.6452 108.206 63.6574 108.63 63.6175 109.051C63.5591 109.495 63.3977 109.923 63.3427 110.368C63.3295 111.385 63.5893 112.386 64.0951 113.269C64.5623 114.296 64.9957 115.338 65.3954 116.395C65.633 116.94 65.7859 117.517 65.8489 118.107C65.8714 118.27 65.8407 118.436 65.7613 118.581C65.6846 118.673 65.581 118.739 65.4649 118.769C65.3489 118.8 65.2261 118.794 65.1137 118.752C64.8893 118.662 64.6925 118.515 64.5434 118.326C64.0055 117.656 63.5617 116.916 63.2242 116.127C62.599 114.818 61.9743 113.51 61.3502 112.203C60.528 110.551 59.7923 108.857 59.1463 107.129C58.8109 106.36 58.679 105.518 58.7633 104.683" fill="#ECD5CB"/>
<path d="M65.4889 102.228C68.0853 104.435 71.2352 105.897 74.6014 106.458C77.9957 107.168 89.5268 111.784 99.0619 103.426C99.9843 102.381 100.561 101.078 100.713 99.6953C100.783 99.3017 100.845 98.8687 100.884 98.4255C101.228 94.5495 100.223 88.7825 95.7432 81.9339C95.3121 81.2494 94.8157 80.5427 94.3003 79.8342C93.9018 79.2951 93.4793 78.7561 93.0464 78.2033C92.6136 77.6506 92.1875 77.1338 91.7237 76.6084L78.1073 75.6724C78.0617 75.6941 78.0175 75.7187 77.975 75.7459C76.8157 76.3229 75.7122 77.0052 74.6787 77.7841C71.9947 79.7587 70.0841 82.6023 69.2747 85.8271C68.8741 87.3961 68.3627 88.9349 67.7443 90.4321C67.0587 91.6288 66.1211 92.6633 64.9959 93.4645C61.9418 96.3377 62.531 99.4026 65.4889 102.228Z" fill="#F9BCA1"/>
<path d="M72.4704 101.372C72.1841 101.443 71.8852 101.447 71.5972 101.383C71.3092 101.319 71.0401 101.19 70.811 101.004" stroke="#F4997D" stroke-width="2.07" stroke-miterlimit="10"/>
<g style="mix-blend-mode:multiply" opacity="0.14">
<path d="M91.522 90.4356C94.2431 93.8438 97.3267 96.9485 100.719 99.6953C101.478 95.5232 100.609 88.4231 94.303 79.8359L91.522 90.4356Z" fill="#F2A98D"/>
</g>
<path d="M90.7507 90.545C93.8458 93.5145 97.2423 96.1555 100.885 98.4254C103.199 99.8855 105.691 101.046 108.299 101.879L112.621 98.4254C109.563 95.3674 105.387 88.565 102.789 85.122C101.788 83.7813 100.654 82.5447 99.4047 81.4307C97.6268 79.7899 95.4265 78.6732 93.0491 78.205C92.8086 78.169 92.5698 78.1331 92.3156 78.1074L91.8226 82.0639L90.7507 90.545Z" fill="#F9BCA1"/>
<path d="M109.28 99.1094L111.874 97.624C115.074 97.6685 119.414 99.2515 119.32 99.8726C119.226 100.494 116.35 99.8076 116.068 99.8008C116.755 100.22 120.084 100.999 119.997 101.909C119.932 102.578 117.652 101.567 116.161 101.334C117.176 102.019 120.112 103.216 119.679 103.766C119.246 104.315 116.201 102.987 114.936 102.547C115.605 102.977 117.925 104.324 117.425 104.983C117.066 105.361 114.251 103.655 113.081 103.454C112.325 103.323 111.606 103.345 111.772 103.732C111.939 104.118 113.676 105.121 112.693 105.392C111.365 105.268 110.12 104.693 109.166 103.764C108.846 103.463 108.593 103.097 108.423 102.692C108.254 102.287 108.172 101.851 108.183 101.412C108.193 100.973 108.296 100.541 108.486 100.144C108.675 99.7477 108.945 99.3951 109.28 99.1094Z" fill="#F9BCA1"/>
<path d="M68.156 55.9126C67.9103 55.6657 67.589 55.5078 67.2429 55.4637C66.8968 55.4197 66.5459 55.4922 66.2459 55.6696C65.6552 56.0466 65.2017 56.6027 64.9524 57.2559C64.6568 57.9151 64.4601 58.6139 64.3684 59.33C64.2113 60.1651 64.3549 61.0286 64.7738 61.7686C65.1238 62.2568 65.5941 62.6469 66.1394 62.9015C66.5839 63.1815 67.0933 63.3429 67.6185 63.3702C68.1437 63.3975 68.6672 63.2897 69.1386 63.0572" fill="#F2A98D"/>
<g style="mix-blend-mode:multiply" opacity="0.14">
<path d="M69.0149 73.9087C70.0524 74.7813 71.1511 75.5791 72.3026 76.2959C73.0686 76.8356 73.864 77.3327 74.6851 77.7847C75.8724 78.4434 77.1074 79.0125 78.38 79.4875C82.6758 81.1271 87.2282 81.9995 91.8281 82.0646C93.1372 82.0947 94.447 82.0518 95.7514 81.9363C96.9933 81.8268 98.218 81.6591 99.4118 81.4332C97.6312 79.7907 95.4271 78.6738 93.0459 78.2074C92.6251 77.6769 92.1871 77.1379 91.7233 76.6125L78.1068 75.6764C78.0612 75.6982 78.0171 75.7228 77.9746 75.75C75.4598 75.1271 72.2459 74.571 69.0149 73.9087Z" fill="#F2A98D"/>
</g>
<path d="M64.1899 65.0634C64.4565 64.0775 64.9172 63.1544 65.5452 62.3476C66.4162 60.6364 66.9271 58.7659 67.0465 56.8509C67.0465 56.7996 67.0311 56.7483 67.0276 56.6952C66.5402 50.2404 68.6465 43.8571 72.8833 38.9495C77.12 34.0419 83.1401 31.012 89.6192 30.5264C96.0983 30.0407 102.506 32.1391 107.432 36.36C112.358 40.5808 115.399 46.5783 115.887 53.0331C116.13 58.6808 114.552 64.2578 111.385 68.948C110.429 70.8164 109.154 72.5049 107.618 73.9381C107.22 74.3125 106.803 74.6661 106.369 74.9973C106.226 75.1034 106.073 75.2044 105.927 75.3105C104.744 76.9379 103.351 78.5825 98.8434 79.6161C89.2241 81.8253 77.6638 79.5716 70.8083 74.6842C69.3225 73.7604 67.9247 72.7029 66.6325 71.5252C65.6781 70.7678 64.9472 69.7673 64.5172 68.6297C64.0872 67.4921 63.9741 66.2598 64.1899 65.0634Z" fill="#F9BCA1"/>
<path d="M81.6993 61.7643C81.4613 61.5305 81.1668 61.3619 80.8442 61.2746C80.5216 61.1874 80.1819 61.1845 79.8579 61.2664C79.5851 61.3322 79.3363 61.473 79.1397 61.6726C78.9431 61.8723 78.8067 62.1229 78.7459 62.3959C78.685 62.6689 78.7023 62.9535 78.7956 63.2172C78.8889 63.481 79.0547 63.7134 79.2739 63.888C79.6178 64.1735 80.0463 64.3382 80.4935 64.3569" stroke="#F4997D" stroke-width="2.07" stroke-miterlimit="10"/>
<g style="mix-blend-mode:multiply" opacity="0.14">
<path d="M92.5346 68.2085C92.8878 67.8748 93.3135 67.6267 93.7785 67.4834C94.2435 67.34 94.7354 67.3053 95.216 67.3819C96.6236 67.4464 97.969 67.9784 99.038 68.893C99.5533 69.6836 98.5913 70.4109 97.2189 70.6625C94.7367 71.1245 91.3631 69.4765 92.5346 68.2085Z" fill="#F2A98D"/>
</g>
<g style="mix-blend-mode:multiply" opacity="0.14">
<path d="M66.6815 61.7632C66.9851 61.4663 67.3601 61.2519 67.7705 61.1405C68.181 61.029 68.6133 61.0243 69.0262 61.1266C70.2286 61.421 71.723 62.0764 72.0734 62.8961C72.4239 63.7158 71.5358 64.3747 70.3557 64.5304C68.2137 64.8145 65.5667 62.944 66.6815 61.7632Z" fill="#F2A98D"/>
</g>
<g style="mix-blend-mode:multiply" opacity="0.35">
<path d="M107.939 66.4944C108.476 65.7248 109.244 65.144 110.132 64.8348C111.021 64.5257 111.984 64.504 112.886 64.7728C113.905 65.2862 114.238 67.1686 114.432 68.2895C114.59 69.4248 114.411 70.5814 113.917 71.6162C113.206 73.1997 112.014 74.5204 110.509 75.3913C109.598 75.915 107.769 77.0102 106.797 76.6149C106.407 76.3768 106.102 76.0244 105.922 75.606C105.742 75.1877 105.696 74.7241 105.792 74.279" fill="#F2A98D"/>
</g>
<path d="M105.801 74.2778C105.986 74.5225 106.17 74.7689 106.374 74.9914C106.679 75.3662 107.069 75.6641 107.511 75.8607C108.016 76.0125 108.548 76.0491 109.069 75.9679C109.59 75.8868 110.085 75.6899 110.519 75.3918C112.026 74.5221 113.218 73.1994 113.924 71.6133C114.421 70.5817 114.6 69.4265 114.439 68.2934C114.359 67.7649 114.165 67.2597 113.872 66.8119C113.579 66.3641 113.193 65.9841 112.74 65.6974C112.678 65.6546 112.617 65.6238 112.555 65.5879C111.789 65.2351 110.93 65.1324 110.102 65.2947C109.274 65.457 108.519 65.8759 107.944 66.4915L105.801 74.2778Z" fill="#F9BCA1"/>
<path d="M111.829 68.7289C111.602 68.4311 111.282 68.2183 110.919 68.1251C110.556 68.0319 110.172 68.0638 109.829 68.2155C109.518 68.3492 109.266 68.5884 109.116 68.8907C108.966 69.1929 108.929 69.5383 109.011 69.8652C109.092 70.4111 109.585 71.0631 109.343 71.6278C108.981 72.4646 107.545 71.9341 107.261 72.7675C107.196 72.9844 107.202 73.216 107.276 73.4299C107.35 73.6437 107.489 73.8291 107.675 73.9599C107.86 74.0907 108.082 74.1604 108.309 74.1593C108.536 74.1581 108.757 74.0861 108.941 73.9534" stroke="#F4997D" stroke-width="2.07" stroke-miterlimit="10"/>
<path d="M82.8413 77.5654C81.4774 78.4894 79.9067 79.0658 78.267 79.2441C77.4474 79.3208 76.622 79.1797 75.875 78.8352C75.1279 78.4907 74.4857 77.9551 74.014 77.283C73.572 76.4904 73.3535 75.5933 73.3818 74.687" fill="#F9BCA1"/>
<path d="M78.5945 76.3205C78.0396 76.4305 77.4666 76.4104 76.9208 76.2619C76.375 76.1134 75.8713 75.8406 75.4495 75.4648" stroke="#F4997D" stroke-width="2.07" stroke-miterlimit="10"/>
<path d="M71.8075 49.2418C71.3368 49.3034 70.8129 48.0918 72.151 47.8728C72.6622 47.7522 73.1942 47.7482 73.7072 47.861C74.2202 47.9738 74.7011 48.2006 75.1139 48.5243C75.5267 48.8481 75.8608 49.2605 76.0913 49.7308C76.3219 50.2011 76.4428 50.7172 76.4452 51.2406C76.459 51.6308 75.9952 52.3478 75.2549 51.0267C74.9605 50.3902 74.4621 49.8694 73.8379 49.5462C73.2138 49.2231 72.4995 49.116 71.8075 49.2418Z" fill="#FDA002"/>
<path d="M74.4987 58.2334C74.5267 57.4919 74.2692 56.7676 73.7789 56.209C73.3677 55.6423 72.7723 55.2347 72.0938 55.0556C71.7462 54.9902 71.3873 55.0192 71.0548 55.1397C70.7224 55.2601 70.4286 55.4675 70.2043 55.7401" stroke="#601E01" stroke-miterlimit="10"/>
<path d="M95.7382 57.4737C96.0371 57.845 97.2549 57.3385 96.4425 56.2501C96.1568 55.8119 95.7757 55.4434 95.3275 55.172C94.8792 54.9007 94.3753 54.7335 93.8533 54.6829C93.3313 54.6322 92.8045 54.6994 92.3121 54.8795C91.8198 55.0596 91.3745 55.3479 91.0093 55.723C90.7276 55.9951 90.5593 56.8302 92.0142 56.3887C92.6679 56.1333 93.3882 56.1012 94.0622 56.2975C94.7362 56.4939 95.3257 56.9076 95.7382 57.4737Z" fill="#FDA002"/>
<path d="M88.9053 62.2695C89.525 61.5803 90.3848 61.152 91.3101 61.0716C92.1708 60.917 93.0587 61.0639 93.8231 61.4874C94.1927 61.7281 94.4903 62.0638 94.6844 62.4589C94.8785 62.8541 94.9619 63.2942 94.9259 63.7326" stroke="#601E01" stroke-miterlimit="10"/>
<path d="M71.7222 81.7808C70.5949 83.0386 69.7934 84.5519 69.3878 86.189C68.9132 87.7969 68.2844 89.3557 67.5103 90.8437" stroke="#F4997D" stroke-width="0.25" stroke-linecap="round" stroke-linejoin="round"/>
<path d="M74.2895 70.2967C74.4433 71.1428 74.8484 71.9235 75.4522 72.5379C76.0561 73.1523 76.831 73.5721 77.6769 73.7432C78.3737 73.9524 79.1086 74.0041 79.828 73.8945C80.5474 73.785 81.2332 73.517 81.8356 73.11C82.3831 72.7101 82.8223 72.1809 83.1136 71.5699C83.2876 71.2108 83.313 70.7979 83.1845 70.4203C83.056 70.0426 82.7838 69.7303 82.4265 69.5506C80.3904 68.5508 78.1969 67.9071 75.942 67.6476C75.5552 67.601 75.1653 67.7049 74.8536 67.9376C74.5419 68.1704 74.3324 68.514 74.2689 68.8969C74.197 69.3614 74.204 69.8345 74.2895 70.2967Z" fill="white"/>
<path d="M87.9213 113.319C78.8757 112.06 71.6818 121.077 71.6818 121.077C66.8344 121.578 68.0351 126.05 69.7786 129.19C70.8451 130.727 72.2941 131.961 73.9836 132.772C76.9175 133.732 76.1823 130.02 75.8731 128.069L76.0122 128.909C82.6221 128.466 88.6462 127.598 94.2202 123.738C95.4918 122.916 96.496 121.743 97.1103 120.363C97.7246 118.983 97.9224 117.454 97.6797 115.963C97.1061 114.036 95.8756 112.368 94.2003 111.247C92.525 110.126 90.5098 109.623 88.5018 109.823C87.5744 109.906 86.6996 110.288 86.0113 110.913C85.3229 111.537 84.8589 112.37 84.6902 113.282" fill="#F9BCA1"/>
<path d="M75.405 131.44C74.857 134.112 72.7493 133.544 73.5309 131.651L75.405 131.44Z" fill="#F9BCA1"/>
<path d="M75.405 131.44C74.857 134.112 72.7493 133.544 73.5309 131.651" stroke="#EEA78D" stroke-width="0.25" stroke-linecap="round" stroke-linejoin="round"/>
<path d="M74.0612 131.452C73.7469 132.434 72.7901 133.534 71.756 132.398C71.3249 131.924 71.5654 131.371 71.8986 130.807" fill="#F9BCA1"/>
<path d="M74.0612 131.452C73.7469 132.434 72.7901 133.534 71.756 132.398C71.3249 131.924 71.5654 131.371 71.8986 130.807" stroke="#EEA78D" stroke-width="0.25" stroke-linecap="round" stroke-linejoin="round"/>
<path d="M72.5822 130.782C72.3451 131.767 71.6872 132.431 70.897 132.022C69.461 131.28 69.9316 130.359 70.3044 129.456" fill="#F9BCA1"/>
<path d="M72.5822 130.782C72.3451 131.767 71.6872 132.431 70.897 132.022C69.461 131.28 69.9316 130.359 70.3044 129.456" stroke="#EEA78D" stroke-width="0.25" stroke-linecap="round" stroke-linejoin="round"/>
<path d="M71.4492 129.825C71.1537 131.146 70.075 131.595 69.3003 130.549C69.0736 130.073 68.9593 129.552 68.9661 129.025C68.973 128.498 69.1007 127.98 69.3397 127.51" fill="#F9BCA1"/>
<path d="M71.4492 129.825C71.1537 131.146 70.075 131.595 69.3003 130.549C69.0736 130.073 68.9593 129.552 68.9661 129.025C68.973 128.498 69.1007 127.98 69.3397 127.51" stroke="#EEA78D" stroke-width="0.25" stroke-linecap="round" stroke-linejoin="round"/>
<path d="M70.3859 128.264C70.4116 129.72 68.3366 130.557 67.579 128.39C67.3607 127.875 67.3334 127.3 67.5021 126.767C67.6708 126.234 68.0245 125.778 68.4998 125.481" fill="#F9BCA1"/>
<path d="M70.3859 128.264C70.4116 129.72 68.3366 130.557 67.579 128.39C67.3607 127.875 67.3334 127.3 67.5021 126.767C67.6708 126.234 68.0245 125.778 68.4998 125.481" stroke="#EEA78D" stroke-width="0.25" stroke-linecap="round" stroke-linejoin="round"/>
<g style="mix-blend-mode:multiply" opacity="0.15">
<path d="M68.3629 125.58C68.1711 125.061 68.1111 124.504 68.188 123.956C68.2649 123.409 68.4764 122.89 68.8037 122.443C69.131 121.997 69.5639 121.639 70.0639 121.4C70.5639 121.161 71.1155 121.049 71.6695 121.074C72.3592 120.249 73.1053 119.473 73.9025 118.752L73.8923 118.784C72.5765 122.378 75.2372 124.542 78.726 124.536C83.5493 124.503 89.7933 123.266 93.2339 119.527C94.0353 118.769 94.5491 117.759 94.6881 116.668C94.8271 115.576 94.5828 114.47 93.9965 113.537C93.2433 112.447 92.2242 111.565 91.0349 110.975C89.8456 110.384 88.5253 110.105 87.1978 110.163C87.6123 109.992 88.0488 109.88 88.4946 109.831C90.5026 109.63 92.5178 110.134 94.1931 111.255C95.8684 112.375 97.0989 114.043 97.6725 115.971C97.9148 117.461 97.7167 118.99 97.1025 120.37C96.4882 121.75 95.4843 122.923 94.213 123.745C88.6372 127.604 82.6132 128.473 76.005 128.917L75.8659 128.076C76.1408 129.842 76.7712 133.049 74.7116 132.931C74.131 133.522 73.4405 133.306 73.3598 132.589C73.2509 132.7 73.118 132.785 72.9712 132.838C72.8245 132.891 72.6675 132.91 72.5124 132.893C72.3572 132.877 72.2079 132.825 72.0756 132.743C71.9432 132.661 71.8314 132.549 71.7485 132.418C71.6754 132.335 71.6172 132.24 71.5767 132.137C71.3469 132.192 71.1048 132.157 70.9 132.04C70.688 131.955 70.496 131.828 70.3362 131.666C70.1765 131.503 70.0526 131.31 69.9724 131.097C69.6986 130.994 69.4639 130.808 69.3008 130.566C69.1254 130.316 69.0171 130.026 68.9864 129.723C68.4539 129.697 67.9008 129.319 67.5796 128.405C67.3623 127.916 67.3216 127.368 67.4644 126.853C67.6072 126.338 67.9247 125.888 68.3629 125.58Z" fill="#F3AA8E"/>
</g>
<path d="M101.957 30.6438C102.69 31.6328 103.002 32.8692 102.828 34.086C102.653 35.3027 102.004 36.4021 101.023 37.1467C100.012 37.8829 98.8202 38.3329 97.5736 38.4489C95.9802 38.7089 94.3497 38.632 92.788 38.223C90.7332 37.5696 89.0101 36.1524 87.9771 34.2659C86.9441 32.3795 86.6807 30.169 87.2415 28.094C87.4211 27.4904 87.6768 26.912 88.0025 26.3724C88.1184 27.2112 88.495 27.9927 89.0795 28.6074C88.755 27.4168 88.8151 26.1546 89.2513 25C89.9945 25.8807 90.9231 26.5876 91.9713 27.0705C93.0195 27.5535 94.1617 27.8007 95.3165 27.7945C94.7171 27.4129 94.5161 26.2287 94.5281 25.5168C94.9618 25.9194 95.4955 26.1994 96.074 26.3279C98.4332 27.1345 100.489 28.6389 101.968 30.6404L101.957 30.6438Z" fill="#FDA002"/>
<path d="M90.6426 32.9531C90.9713 33.8073 91.4308 34.6057 92.0047 35.3198C92.5758 36.0505 93.2601 36.6859 94.0317 37.2022C94.8077 37.7203 95.6864 38.0663 96.6082 38.217C97.5231 38.3583 98.4579 38.2999 99.348 38.0459C99.1178 38.0459 98.891 38.0459 98.6608 38.0613C98.4371 38.081 98.2119 38.0765 97.9892 38.0476L97.3245 37.9928L96.6735 37.8577C95.816 37.654 95.0017 37.2999 94.2687 36.8121C93.5322 36.3202 92.8585 35.741 92.2624 35.0871C91.6615 34.4239 91.1194 33.7099 90.6426 32.9531Z" fill="#FFBC52"/>
</svg>
