<svg width="160" height="160" viewBox="0 0 160 160" fill="none" xmlns="http://www.w3.org/2000/svg">
<circle cx="80" cy="80" r="79.5" stroke="#CCCCCC"/>
<path d="M108.614 98.789C108.46 98.0988 108.248 97.4099 108.068 96.7028C107.99 96.5068 107.843 96.3376 107.758 96.1417C107.572 96.3194 107.391 96.4971 107.215 96.6602C106.662 97.2152 106.11 97.7337 105.595 98.2425C105.335 98.4859 105.088 98.7293 104.85 98.9642C104.582 99.1699 104.326 99.3768 104.079 99.5618C102.106 101.08 100.8 102.096 100.8 102.096C100.8 102.096 101.885 100.859 103.511 99.0178C103.704 98.7865 103.929 98.5492 104.143 98.2997C104.332 98.0295 104.518 97.7446 104.72 97.4574C105.124 96.8853 105.541 96.2804 105.98 95.6585C106.445 95.0338 106.867 94.3783 107.243 93.6964C107.628 93.0063 108.014 92.2992 108.41 91.6103C108.532 91.4143 108.614 91.1904 108.724 90.9883C110.779 83.7512 115 73.7524 115 57.2481C115 44.955 108.375 35 96.0474 35C91.0271 35.0639 86.069 36.115 81.4575 38.0927C81.7615 38.3398 82.0473 38.6083 82.3127 38.8961C82.937 39.5436 83.5577 40.1899 84.1453 40.8228C84.733 41.4557 85.3084 42.0399 85.8557 42.6108C86.3334 43.2254 86.794 43.8157 87.218 44.3525L89.9705 47.9394C89.9705 47.9394 88.6364 46.7222 86.6376 44.9075C86.1416 44.445 85.5992 43.9581 85.0249 43.4469C84.4043 42.9881 83.7507 42.5122 83.08 42.018C82.4093 41.5239 81.7067 41.0017 81.003 40.4893C80.2765 39.9917 79.525 39.5314 78.7514 39.1103C77.9915 38.666 77.2352 38.2145 76.4863 37.7885C75.7012 37.4298 74.9364 37.0825 74.1919 36.7466C73.7277 36.5263 73.2683 36.3303 72.8285 36.1526C69.916 35.4446 66.9341 35.0585 63.9368 35.0012C51.5973 35.0012 45 44.9574 45 57.2493C45 72.797 48.846 82.5584 50.973 89.703C51.2687 90.3396 51.5729 90.9895 51.9406 91.6115C52.3365 92.3016 52.7323 93.0088 53.1147 93.6977C53.49 94.3782 53.9138 95.031 54.3828 95.6512C54.8141 96.2731 55.2381 96.878 55.6388 97.4501C55.8392 97.7386 56.031 98.0222 56.213 98.2924C56.4378 98.5358 56.6479 98.7792 56.8519 99.0105C58.483 100.852 59.5569 102.089 59.5569 102.089C59.5569 102.089 58.2508 101.072 56.2777 99.5545C56.0334 99.3695 55.7744 99.1638 55.5142 98.9569C55.2698 98.7135 55.0255 98.481 54.7616 98.2352C54.2472 97.73 53.7048 97.2115 53.1416 96.6529C52.8667 96.39 52.582 96.1161 52.3035 95.8423C52.3218 96.1587 52.0396 96.4034 51.937 96.6943C51.7439 97.4014 51.5411 98.0915 51.3945 98.7804C51.0642 100.079 50.827 101.398 50.6847 102.73C50.3944 104.985 50.3535 107.266 50.5625 109.53C50.7009 111.294 50.9774 113.043 51.3896 114.764C51.5183 115.344 51.7096 115.909 51.9602 116.448C52.1422 116.917 52.3169 117.3 52.4281 117.625C52.7066 118.266 52.8703 118.625 52.8703 118.625C53.2969 119.424 53.9294 120.096 54.7029 120.572C55.8013 121.224 57.1142 121.416 58.3545 121.107C59.5948 120.797 60.6614 120.01 61.321 118.919C61.321 118.919 61.5251 118.584 61.8317 117.981C62.1384 117.409 62.5879 116.346 63.1548 115.382C63.7046 114.53 64.3864 113.463 65.1389 112.236C65.5458 111.627 65.9062 110.992 66.3912 110.366C66.8125 109.692 67.2774 109.046 67.7828 108.432C68.2557 107.764 68.768 107.124 69.3172 106.517C69.6068 106.207 69.845 105.876 70.1089 105.554C70.4046 105.269 70.6831 104.974 70.9641 104.676C71.5237 104.068 72.1419 103.592 72.7087 103.031C73.3648 102.611 73.8608 102.007 74.5034 101.683C75.4777 100.98 76.5599 100.439 77.708 100.08C77.8302 100.045 77.9292 100.013 78.0501 99.9696L78.3531 99.9087C78.5535 99.8905 78.7599 99.7736 78.9493 99.8053C79.1277 99.8053 79.3024 99.731 79.4698 99.7383C79.561 99.7508 79.6535 99.7508 79.7447 99.7383H79.8668L79.9133 99.731L81.1472 99.7882C81.554 99.8065 81.4502 99.8491 81.4038 99.8588C81.472 99.8864 81.5441 99.9033 81.6175 99.9087L81.9389 99.9696C82.0507 100.013 82.165 100.05 82.2809 100.08C83.4302 100.441 84.5141 100.982 85.4917 101.683C86.1306 102.007 86.623 102.611 87.2754 103.031C87.8533 103.592 88.4605 104.069 89.0237 104.691C89.3096 104.976 89.5942 105.27 89.8789 105.555C90.1355 105.879 90.3859 106.209 90.6705 106.518C91.2264 107.123 91.7426 107.763 92.216 108.434C92.7512 109.042 93.1262 109.72 93.5966 110.368C94.0421 110.968 94.4541 111.592 94.8305 112.237C95.6589 113.446 96.2502 114.615 96.8464 115.567C97.4169 116.573 97.8421 117.377 98.1451 117.903C98.4664 118.468 98.6484 118.767 98.6484 118.767L99.0088 119.311C99.4759 120.032 100.139 120.607 100.921 120.968C101.471 121.228 102.067 121.379 102.676 121.41C103.284 121.441 103.892 121.352 104.466 121.148C105.04 120.945 105.568 120.631 106.02 120.224C106.472 119.817 106.839 119.325 107.1 118.777C107.268 118.427 107.416 118.069 107.546 117.703C107.949 116.69 108.299 115.656 108.596 114.607C109.009 112.943 109.292 111.249 109.441 109.541C109.641 107.276 109.6 104.997 109.319 102.741C109.168 101.41 108.933 100.09 108.614 98.789Z" fill="#00568A"/>
<path d="M81.1512 50.4267C81.1512 50.4267 73.3834 39.3435 66.2461 41.6438C59.1088 43.9442 59.7416 51.6816 56.5945 50.4267C53.4473 49.1718 50.9245 60.6714 56.5945 61.3006C62.2645 61.9299 61.0012 65.4803 64.78 69.0355C68.5588 72.5908 77.5825 66.3164 85.3453 69.0355C93.1082 71.7546 98.9896 68.4099 98.5681 63.8104C98.1466 59.2108 92.898 60.2271 92.0648 55.7444C91.2316 51.2617 82.4108 54.6076 81.1512 50.4267Z" fill="url(#paint0_linear)"/>
<path d="M72.5842 54.8428C73.0403 54.8428 73.4101 54.4745 73.4101 54.0201C73.4101 53.5656 73.0403 53.1973 72.5842 53.1973C72.1281 53.1973 71.7583 53.5656 71.7583 54.0201C71.7583 54.4745 72.1281 54.8428 72.5842 54.8428Z" fill="#E2450E"/>
<path d="M66.6568 60.0172C66.8815 60.0172 67.0637 59.8357 67.0637 59.6119C67.0637 59.388 66.8815 59.2065 66.6568 59.2065C66.4321 59.2065 66.25 59.388 66.25 59.6119C66.25 59.8357 66.4321 60.0172 66.6568 60.0172Z" fill="#E2450E"/>
<path d="M76.9186 62.7373C77.3315 62.7373 77.6663 62.4038 77.6663 61.9924C77.6663 61.5811 77.3315 61.2476 76.9186 61.2476C76.5057 61.2476 76.1709 61.5811 76.1709 61.9924C76.1709 62.4038 76.5057 62.7373 76.9186 62.7373Z" fill="#E2450E"/>
<path d="M83.08 59.0244C83.2174 59.0244 83.3287 58.9133 83.3287 58.7761C83.3287 58.639 83.2174 58.5278 83.08 58.5278C82.9426 58.5278 82.8313 58.639 82.8313 58.7761C82.8313 58.9133 82.9426 59.0244 83.08 59.0244Z" fill="#E2450E"/>
<path d="M62.2514 47.9942C62.3891 47.9942 62.5007 47.883 62.5007 47.7459C62.5007 47.6087 62.3891 47.4976 62.2514 47.4976C62.1138 47.4976 62.0022 47.6087 62.0022 47.7459C62.0022 47.883 62.1138 47.9942 62.2514 47.9942Z" fill="#E2450E"/>
<path d="M60.0672 56.2006C60.4437 56.2006 60.7489 55.8965 60.7489 55.5214C60.7489 55.1464 60.4437 54.8423 60.0672 54.8423C59.6907 54.8423 59.3855 55.1464 59.3855 55.5214C59.3855 55.8965 59.6907 56.2006 60.0672 56.2006Z" fill="#E2450E"/>
<defs>
<linearGradient id="paint0_linear" x1="53.2229" y1="55.7437" x2="98.5894" y2="55.7437" gradientUnits="userSpaceOnUse">
<stop stop-color="#AEFAFC"/>
<stop offset="0.105" stop-color="#A5F6F8"/>
<stop offset="0.271" stop-color="#8FECEE"/>
<stop offset="0.476" stop-color="#6ADCDF"/>
<stop offset="0.71" stop-color="#38C6C9"/>
<stop offset="0.865" stop-color="#13B6BA"/>
</linearGradient>
</defs>
</svg>
