<svg width="160" height="160" viewBox="0 0 160 160" fill="none" xmlns="http://www.w3.org/2000/svg">
<circle cx="80" cy="80" r="79.5" stroke="#CCCCCC"/>
<path d="M65.2171 42.3266L50.1709 46.2587L49.3182 58.6983C49.3182 58.6983 47.0767 63.1598 46.9701 63.6938C46.8635 64.2278 46.9701 69.325 46.9701 69.325C46.9701 69.325 48.2507 75.9164 48.3588 76.2365C48.467 76.5566 51.453 82.5079 51.453 82.5079L53.0519 88.3529L57.0019 91.5387C57.0019 91.5387 70.2315 97.81 70.8695 98.1301C72.5226 99.0472 74.0628 100.153 75.459 101.425C76.0986 102.275 81.4327 109.077 81.4327 109.077C81.4327 109.077 84.3122 112.906 84.3122 114.386C84.5263 115.974 84.5263 117.583 84.3122 119.171C83.8874 120.55 82.392 124.59 82.2854 125.336C82.1789 126.083 80.8617 134.57 80.8617 134.57C80.8617 134.57 103.519 127.676 111.118 108.353C111.202 102.906 98.1844 89.1797 98.0778 88.4439C97.9712 87.7082 95.3048 80.0533 95.0901 77.1831C94.8984 74.1402 94.8628 71.0896 94.9836 68.0431C95.0902 66.0239 96.9037 65.1714 96.1576 60.9131C95.4114 56.6548 95.3049 56.0238 93.2781 53.5783C91.2513 51.1329 82.1834 46.0342 78.4466 44.4383C74.7098 42.8424 64.6826 42.3145 64.6826 42.3145L65.2171 42.3266Z" fill="#E5BD88"/>
<path d="M69.3037 130.825C68.0459 127.639 72.7801 125.597 75.0307 123.384C76.8075 121.844 78.4602 120.167 79.9735 118.369C81.9454 115.715 81.7734 113.625 79.3994 111.334C77.5705 109.74 75.4992 108.444 73.2628 107.496C55.5899 98.8491 44.8576 84.7681 40.6351 65.725C38.5276 56.2163 41.7771 48.3521 48.7208 41.8274C50.1228 40.5517 51.5972 39.3574 53.1368 38.2503C55.0967 36.8327 56.9335 35.2535 58.6278 33.5293C63.5645 28.3715 69.9402 26.0307 76.8382 25.034C78.4905 24.5912 80.1687 24.2502 81.8632 24.0131C102.046 23.5018 112.013 38.0773 115.126 51.8746C117.156 60.8857 115.37 69.4523 112.642 77.9522C111.649 81.0514 110.45 84.0809 109.361 87.1483C106.924 93.9977 108.304 100.574 110.817 107.068C110.969 107.463 111.384 107.815 111.121 108.364C102.773 103.079 95.2476 96.6035 88.784 89.1447C86.6659 86.6659 84.461 84.266 82.3779 81.7584C81.5109 80.7076 80.7618 79.5656 80.144 78.3527C78.4538 75.0152 78.6213 73.48 81.2693 70.8374C82.22 69.9548 82.8638 68.7935 83.1075 67.5219C83.3512 66.2503 83.182 64.9344 82.6246 63.765C82.554 63.3906 82.4038 63.0356 82.1839 62.7239C81.964 62.4122 81.6797 62.1511 81.3499 61.9582C81.0202 61.7653 80.6528 61.645 80.2724 61.6055C79.8921 61.566 79.5077 61.6082 79.1451 61.7292C77.563 62.1661 75.8529 62.5013 75.7692 64.7496C75.7251 66.2355 75.3717 67.6962 74.7313 69.039C74.091 70.3817 73.1776 71.5774 72.0492 72.5501C74.1642 67.5121 72.5167 64.0548 68.8834 61.1603C61.2256 55.0573 61.2392 55.0407 57.1888 46.5332C56.1783 49.4671 56.0111 52.6239 56.7061 55.6475C56.7944 56.0131 56.9847 56.3514 57.0654 56.72C57.335 57.9336 58.4359 59.2822 57.542 60.3608C56.534 61.5744 55.0219 60.5383 53.5494 60.2835C53.7081 60.7957 54.0384 61.2382 54.4852 61.537C54.9319 61.8357 55.4681 61.9727 56.0041 61.9249C57.8694 61.9052 57.1918 62.6834 56.6132 63.4859C55.9028 64.6131 54.9677 65.583 53.8657 66.3356C52.7638 67.0881 51.5185 67.6073 50.207 67.861C48.7285 68.1007 48.6401 68.7955 49.1243 69.8513C49.4573 70.6946 49.931 71.4757 50.5253 72.1617C51.7084 73.3753 53.3043 74.1172 51.7313 76.3851C51.2181 77.1254 52.1363 79.4191 53.0454 80.434C53.5945 81.056 53.9698 81.8109 54.1336 82.623C54.2975 83.4351 54.2441 84.2759 53.9788 85.0609C53.6408 86.6887 53.5114 88.2861 54.8925 89.4785C56.4228 90.8028 58.0522 90.0019 59.6054 89.4011C61.7951 88.5546 63.9345 87.5686 66.1531 86.807C70.496 85.3173 72.7755 85.8862 75.384 89.7182C80.2038 96.5262 84.1561 103.904 87.1501 111.683C89.4814 118.083 88.0638 123.894 84.5295 129.393C83.3844 131.174 82.0931 132.856 80.8612 134.586C78.6974 133.904 76.5382 133.22 74.3744 132.547C73.5688 132.445 72.7534 132.448 71.9487 132.556C71.4133 132.46 70.903 132.257 70.4484 131.96C69.9938 131.662 69.6044 131.276 69.3037 130.825Z" fill="#8E692A"/>
</svg>
