<svg width="160" height="128" viewBox="0 0 160 128" fill="none" xmlns="http://www.w3.org/2000/svg">
<g clip-path="url(#clip0)">
<path d="M105.973 57.7827L99.9341 76.0064C99.9341 76.0064 108.88 73.117 117.603 61.116L109.775 56.4493C108.433 55.5602 106.644 56.2267 105.973 57.7827Z" fill="#00568A"/>
<path d="M73.7673 51.7825C74.438 51.7825 74.8856 51.7825 75.5563 51.3377C78.464 49.1157 91.212 39.5591 95.238 31.7807C99.7108 22.6688 101.5 10.89 100.158 6.88965C100.158 6.88965 80.4766 14.0014 67.9523 36.67C67.9523 36.8922 67.0575 50.8934 73.7673 51.7825Z" fill="#00568A"/>
<path d="M86.7384 94.0079C84.7254 94.4522 82.7128 94.4522 80.6998 94.4522C58.782 94.4522 41.1133 73.3395 41.1133 47.3372C41.1133 24.6686 54.3088 5.77817 72.2011 1.11108C68.6226 6.88936 55.6507 24.0019 59.6763 55.7823C63.2547 84.8958 83.3836 92.8966 86.7384 94.0079Z" fill="#595A5A"/>
<path d="M117.827 63.3387C113.13 79.1178 101.5 91.1188 87.1867 94.0078C84.0554 92.8965 63.9265 84.8961 60.1245 56.0044C60.3481 58.0047 64.5977 78.4509 88.5286 79.7843C102.619 80.4512 113.578 68.8945 117.827 63.3387Z" fill="#00B8AF"/>
<path d="M99.9334 6.00051C95.4602 7.77844 68.6221 20.0017 60.1233 54.8936C59.6757 51.1156 59.4521 47.3376 59.4521 44.0039C59.4521 19.7795 69.5164 6.00051 72.6477 0.888964C75.3314 0.222241 77.7916 0 80.6993 0C87.6322 0 94.1184 2.22241 99.9334 6.00051Z" fill="#00B8AF"/>
<path d="M6.47607 113.782C5.7754 113.782 5.23044 114 4.84118 114.437C4.45897 114.872 4.21834 115.463 4.11925 116.209H8.82231C8.77275 115.414 8.52858 114.813 8.08976 114.405C7.65803 113.99 7.12014 113.782 6.47607 113.782ZM6.47607 111.303C7.43864 111.303 8.30562 111.482 9.0771 111.841C9.84855 112.2 10.4855 112.766 10.988 113.54C11.441 114.222 11.7347 115.013 11.8692 115.914C11.947 116.441 11.9789 117.2 11.9647 118.192H4.04494C4.0874 119.345 4.4519 120.154 5.13843 120.619C5.556 120.907 6.0585 121.051 6.64595 121.051C7.26876 121.051 7.77482 120.875 8.16409 120.524C8.37639 120.334 8.56395 120.07 8.72677 119.732H11.8161C11.7382 120.414 11.3808 121.107 10.7438 121.81C9.753 122.929 8.3658 123.488 6.58224 123.488C5.11012 123.488 3.81138 123.017 2.68604 122.074C1.56071 121.132 0.998047 119.599 0.998047 117.475C0.998047 115.484 1.50409 113.958 2.51618 112.896C3.53535 111.834 4.85533 111.303 6.47607 111.303ZM19.6692 118.308C19.7683 119.019 19.9629 119.549 20.2531 119.901C20.7839 120.541 21.6934 120.861 22.9815 120.861C23.753 120.861 24.3794 120.777 24.8606 120.608C25.7736 120.284 26.2301 119.683 26.2301 118.804C26.2301 118.29 26.0036 117.893 25.5507 117.612C25.0977 117.337 24.3864 117.095 23.4168 116.884L21.7606 116.515C20.1328 116.149 19.0075 115.752 18.3846 115.322C17.3301 114.605 16.8028 113.484 16.8028 111.957C16.8028 110.565 17.3124 109.408 18.3316 108.487C19.3507 107.565 20.8476 107.105 22.8223 107.105C24.4713 107.105 25.8763 107.541 27.037 108.413C28.2048 109.278 28.817 110.537 28.8736 112.189H25.7312C25.6745 111.254 25.264 110.589 24.4997 110.195C23.9901 109.935 23.3567 109.805 22.5993 109.805C21.7571 109.805 21.0848 109.974 20.5822 110.312C20.0797 110.649 19.8285 111.12 19.8285 111.725C19.8285 112.281 20.0762 112.696 20.5716 112.97C20.8901 113.153 21.5696 113.367 22.61 113.614L25.3065 114.257C26.4884 114.539 27.3802 114.915 27.9818 115.386C28.9161 116.117 29.3832 117.176 29.3832 118.561C29.3832 119.982 28.8347 121.164 27.7376 122.106C26.6477 123.041 25.1048 123.509 23.1089 123.509C21.0706 123.509 19.4675 123.048 18.2997 122.127C17.1319 121.199 16.548 119.926 16.548 118.308H19.6692ZM40.9839 111.314C41.6986 111.314 42.3464 111.437 42.9265 111.683C43.5139 111.929 43.9955 112.305 44.3705 112.812C44.6888 113.241 44.8837 113.684 44.9542 114.141C45.0252 114.591 45.0605 115.33 45.0605 116.357V123.108H41.971V116.114C41.971 115.495 41.8652 114.995 41.6527 114.616C41.3767 114.081 40.853 113.814 40.0815 113.814C39.2817 113.814 38.6731 114.081 38.2555 114.616C37.845 115.143 37.6397 115.899 37.6397 116.884V123.108H34.6247V107.611H37.6397V113.107C38.0786 112.439 38.5846 111.975 39.1579 111.715C39.7382 111.447 40.3469 111.314 40.9839 111.314ZM57.3194 117.517C57.1283 117.636 56.9338 117.735 56.7357 117.812C56.5445 117.882 56.2791 117.949 55.9394 118.012L55.2601 118.139C54.623 118.252 54.1664 118.389 53.8903 118.551C53.4231 118.825 53.1896 119.25 53.1896 119.827C53.1896 120.341 53.3312 120.713 53.6142 120.945C53.9047 121.17 54.255 121.283 54.6652 121.283C55.3167 121.283 55.9144 121.093 56.4596 120.713C57.0118 120.334 57.2981 119.641 57.3194 118.635V117.517ZM55.4828 116.114C56.042 116.044 56.442 115.955 56.6824 115.85C57.1143 115.667 57.3301 115.382 57.3301 114.995C57.3301 114.524 57.1636 114.201 56.8313 114.025C56.5055 113.842 56.0243 113.751 55.3873 113.751C54.6726 113.751 54.1664 113.927 53.869 114.278C53.6569 114.539 53.5154 114.89 53.4444 115.333H50.5252C50.5888 114.327 50.8718 113.501 51.3744 112.854C52.1739 111.841 53.547 111.335 55.4935 111.335C56.7603 111.335 57.8856 111.585 58.8693 112.084C59.853 112.583 60.3453 113.526 60.3453 114.911V120.186C60.3453 120.552 60.3523 120.995 60.3662 121.515C60.3876 121.909 60.4479 122.176 60.5467 122.317C60.646 122.457 60.7945 122.574 60.9927 122.665V123.108H57.7018C57.6095 122.876 57.5459 122.658 57.5106 122.454C57.4753 122.25 57.447 122.018 57.4257 121.758C57.0081 122.208 56.5269 122.591 55.9817 122.907C55.3306 123.28 54.5947 123.467 53.7734 123.467C52.7261 123.467 51.8593 123.171 51.1725 122.581C50.4932 121.983 50.1535 121.139 50.1535 120.049C50.1535 118.635 50.702 117.612 51.799 116.979C52.4004 116.634 53.2852 116.388 54.4532 116.24L55.4828 116.114ZM72.466 117.517C72.2748 117.636 72.0804 117.735 71.8823 117.812C71.6911 117.882 71.4257 117.949 71.086 118.012L70.4062 118.139C69.7696 118.252 69.313 118.389 69.0369 118.551C68.5696 118.825 68.3362 119.25 68.3362 119.827C68.3362 120.341 68.4777 120.713 68.7608 120.945C69.0513 121.17 69.4016 121.283 69.8118 121.283C70.4633 121.283 71.061 121.093 71.6062 120.713C72.1583 120.334 72.4447 119.641 72.466 118.635V117.517ZM70.6294 116.114C71.1886 116.044 71.5885 115.955 71.8289 115.85C72.2609 115.667 72.4767 115.382 72.4767 114.995C72.4767 114.524 72.3101 114.201 71.9779 114.025C71.6521 113.842 71.1709 113.751 70.5338 113.751C69.8192 113.751 69.313 113.927 69.0156 114.278C68.8035 114.539 68.6619 114.89 68.591 115.333H65.6714C65.7354 114.327 66.0184 113.501 66.5209 112.854C67.3205 111.841 68.6935 111.335 70.6401 111.335C71.9069 111.335 73.0321 111.585 74.0159 112.084C74.9996 112.583 75.4915 113.526 75.4915 114.911V120.186C75.4915 120.552 75.4989 120.995 75.5128 121.515C75.5341 121.909 75.5944 122.176 75.6933 122.317C75.7926 122.457 75.9411 122.574 76.1392 122.665V123.108H72.8484C72.7561 122.876 72.6925 122.658 72.6572 122.454C72.6219 122.25 72.5936 122.018 72.5723 121.758C72.1547 122.208 71.6735 122.591 71.1283 122.907C70.4772 123.28 69.7413 123.467 68.92 123.467C67.8727 123.467 67.0058 123.171 66.3191 122.581C65.6398 121.983 65.3001 121.139 65.3001 120.049C65.3001 118.635 65.8486 117.612 66.9455 116.979C67.5469 116.634 68.4318 116.388 69.5997 116.24L70.6294 116.114ZM85.4999 107.4C85.6911 107.4 85.8646 107.407 86.0201 107.421C86.176 107.428 86.3881 107.442 86.6572 107.463V109.911C86.4873 109.89 86.2006 109.875 85.7973 109.869C85.401 109.854 85.125 109.942 84.9691 110.132C84.8206 110.315 84.7463 110.519 84.7463 110.744C84.7463 110.969 84.7463 111.293 84.7463 111.715H86.7314V113.835H84.7463V123.108H81.7311V113.835H80.043V111.715H81.6991V110.976C81.6991 109.745 81.9079 108.898 82.3255 108.434C82.7645 107.745 83.8225 107.4 85.4999 107.4ZM94.6272 110.238H91.559V107.463H94.6272V110.238ZM91.559 111.609H94.6272V123.108H91.559V111.609ZM100.559 119.964H103.775V123.108H100.559V119.964ZM116.618 115.734C116.561 115.305 116.417 114.918 116.183 114.574C115.843 114.109 115.316 113.877 114.601 113.877C113.582 113.877 112.885 114.38 112.51 115.386C112.311 115.92 112.213 116.631 112.213 117.517C112.213 118.361 112.311 119.039 112.51 119.553C112.871 120.509 113.55 120.987 114.548 120.987C115.256 120.987 115.758 120.798 116.056 120.418C116.353 120.038 116.533 119.546 116.597 118.941H119.686C119.616 119.855 119.283 120.72 118.688 121.536C117.74 122.851 116.335 123.509 114.474 123.509C112.612 123.509 111.243 122.96 110.365 121.863C109.487 120.766 109.049 119.342 109.049 117.591C109.049 115.614 109.533 114.078 110.503 112.981C111.473 111.884 112.81 111.335 114.516 111.335C115.967 111.335 117.153 111.659 118.073 112.305C119 112.952 119.548 114.095 119.718 115.734H116.618ZM130.045 120.987C130.929 120.987 131.609 120.675 132.083 120.049C132.558 119.423 132.794 118.533 132.794 117.38C132.794 116.226 132.558 115.34 132.083 114.721C131.609 114.095 130.929 113.782 130.045 113.782C129.16 113.782 128.477 114.095 127.996 114.721C127.522 115.34 127.284 116.226 127.284 117.38C127.284 118.533 127.522 119.423 127.996 120.049C128.477 120.675 129.16 120.987 130.045 120.987ZM135.969 117.38C135.969 119.067 135.48 120.513 134.504 121.715C133.527 122.911 132.044 123.509 130.056 123.509C128.067 123.509 126.584 122.911 125.607 121.715C124.631 120.513 124.142 119.067 124.142 117.38C124.142 115.72 124.631 114.282 125.607 113.065C126.584 111.848 128.067 111.24 130.056 111.24C132.044 111.24 133.527 111.848 134.504 113.065C135.48 114.282 135.969 115.72 135.969 117.38ZM154.12 111.356C154.629 111.356 155.132 111.454 155.627 111.652C156.123 111.848 156.572 112.193 156.975 112.685C157.301 113.086 157.521 113.579 157.634 114.162C157.704 114.549 157.74 115.115 157.74 115.861L157.719 123.108H154.619V115.787C154.619 115.351 154.548 114.992 154.407 114.711C154.137 114.176 153.642 113.909 152.92 113.909C152.085 113.909 151.508 114.254 151.189 114.943C151.027 115.309 150.945 115.748 150.945 116.262V123.108H147.899V116.262C147.899 115.579 147.828 115.084 147.686 114.774C147.431 114.219 146.933 113.941 146.189 113.941C145.326 113.941 144.746 114.219 144.448 114.774C144.285 115.09 144.204 115.562 144.204 116.187V123.108H141.136V111.63H144.077V113.307C144.452 112.71 144.806 112.284 145.138 112.031C145.726 111.581 146.487 111.356 147.421 111.356C148.306 111.356 149.02 111.549 149.565 111.936C150.004 112.295 150.337 112.755 150.563 113.318C150.96 112.643 151.452 112.147 152.039 111.831C152.662 111.514 153.355 111.356 154.12 111.356Z" fill="#00568A"/>
</g>
<defs>
<clipPath id="clip0">
<rect width="158.76" height="128" fill="white" transform="translate(0.5)"/>
</clipPath>
</defs>
</svg>
