<svg width="69" height="55" viewBox="0 0 69 55" fill="none" xmlns="http://www.w3.org/2000/svg">
<path d="M45.502 24.8286L42.8969 32.659C42.8969 32.659 46.7564 31.4175 50.5193 26.2608L47.1422 24.2556C46.5633 23.8736 45.7915 24.16 45.502 24.8286Z" fill="#00568A"/>
<path d="M31.6081 22.2501C31.8975 22.2501 32.0905 22.2501 32.3799 22.059C33.6343 21.1042 39.1339 16.9979 40.8708 13.6556C42.8004 9.7403 43.5724 4.67911 42.9935 2.96021C42.9935 2.96021 34.5026 6.01603 29.0994 15.7564C29.0994 15.8519 28.7134 21.8681 31.6081 22.2501Z" fill="#00568A"/>
<path d="M37.2041 40.3939C36.3356 40.5848 35.4674 40.5848 34.5989 40.5848C25.1433 40.5848 17.5209 31.513 17.5209 20.3401C17.5209 10.5997 23.2136 2.48268 30.9325 0.477295C29.3887 2.96015 23.7925 10.3132 25.5292 23.9689C27.0729 36.4786 35.7567 39.9164 37.2041 40.3939Z" fill="#595A5A"/>
<path d="M50.6159 27.2159C48.5897 33.996 43.5726 39.1527 37.3974 40.394C36.0466 39.9165 27.3628 36.4789 25.7225 24.0645C25.819 24.924 27.6523 33.7094 37.9763 34.2824C44.055 34.5689 48.7828 29.6032 50.6159 27.2159Z" fill="#00B8AF"/>
<path d="M42.8966 2.57834C40.9668 3.3423 29.3886 8.59448 25.7221 23.5871C25.529 21.9637 25.4326 20.3404 25.4326 18.9079C25.4326 8.49899 29.7744 2.57834 31.1252 0.381977C32.283 0.0954942 33.3444 0 34.5988 0C37.5897 0 40.3879 0.954942 42.8966 2.57834Z" fill="#00B8AF"/>
<path d="M2.57827 48.891C2.27599 48.891 2.0409 48.9847 1.87296 49.1721C1.70808 49.3594 1.60426 49.6132 1.56152 49.9336H3.59046C3.56909 49.5922 3.46375 49.3338 3.27443 49.1585C3.08818 48.9802 2.85613 48.891 2.57827 48.891ZM2.57827 47.8259C2.99353 47.8259 3.36756 47.9028 3.70039 48.0569C4.03319 48.211 4.30799 48.4543 4.52479 48.7868C4.72019 49.0798 4.8469 49.4198 4.90492 49.8067C4.93851 50.0334 4.95224 50.3597 4.94613 50.7857H1.52946C1.54778 51.2814 1.70502 51.6289 2.0012 51.8284C2.18135 51.9523 2.39813 52.0143 2.65156 52.0143C2.92025 52.0143 3.13857 51.9386 3.3065 51.7876C3.39809 51.706 3.479 51.5927 3.54925 51.4476H4.88202C4.84842 51.7407 4.69424 52.0384 4.41943 52.3406C3.99197 52.8211 3.39352 53.0614 2.62407 53.0614C1.98899 53.0614 1.4287 52.8589 0.943216 52.4539C0.457736 52.0489 0.214996 51.3902 0.214996 50.4776C0.214996 49.6223 0.43331 48.9665 0.869936 48.5102C1.30962 48.0539 1.87907 47.8259 2.57827 47.8259ZM8.26994 50.8356C8.31269 51.1409 8.39664 51.369 8.52184 51.5201C8.75083 51.7951 9.14319 51.9326 9.6989 51.9326C10.0317 51.9326 10.3019 51.8964 10.5096 51.8239C10.9034 51.6848 11.1004 51.4264 11.1004 51.0486C11.1004 50.8281 11.0027 50.6573 10.8073 50.5365C10.6118 50.4186 10.305 50.3143 9.88668 50.2236L9.1722 50.0651C8.46993 49.908 7.98444 49.7372 7.71576 49.5528C7.26082 49.2447 7.03335 48.7626 7.03335 48.1068C7.03335 47.5085 7.25317 47.0114 7.69285 46.6155C8.13254 46.2197 8.77831 46.0217 9.6302 46.0217C10.3416 46.0217 10.9477 46.209 11.4485 46.5838C11.9523 46.9555 12.2164 47.4964 12.2408 48.2065H10.8851C10.8607 47.8047 10.6836 47.519 10.3538 47.3498C10.134 47.238 9.86073 47.1822 9.53401 47.1822C9.17068 47.1822 8.88061 47.2547 8.66381 47.3997C8.44703 47.5447 8.33863 47.7472 8.33863 48.0072C8.33863 48.2459 8.44551 48.4242 8.65924 48.5419C8.79663 48.6206 9.08976 48.7127 9.5386 48.8185L10.7019 49.0951C11.2118 49.2159 11.5966 49.3776 11.8561 49.5801C12.2591 49.8943 12.4606 50.349 12.4606 50.9444C12.4606 51.5548 12.224 52.0626 11.7507 52.4676C11.2805 52.8694 10.6149 53.0703 9.75385 53.0703C8.8745 53.0703 8.18292 52.8724 7.67912 52.4765C7.17532 52.0777 6.92342 51.5307 6.92342 50.8356H8.26994ZM17.4653 47.8302C17.7737 47.8302 18.0531 47.8831 18.3034 47.9889C18.5568 48.0947 18.7646 48.2564 18.9263 48.474C19.0637 48.6584 19.1477 48.8488 19.1782 49.0451C19.2088 49.2385 19.224 49.5559 19.224 49.9971V52.8981H17.8912V49.8927C17.8912 49.6269 17.8455 49.4123 17.7538 49.249C17.6348 49.0194 17.4088 48.9047 17.076 48.9047C16.731 48.9047 16.4684 49.0194 16.2882 49.249C16.1111 49.4757 16.0226 49.8006 16.0226 50.2236V52.8981H14.7219V46.2393H16.0226V48.6009C16.2119 48.3139 16.4302 48.1144 16.6775 48.0026C16.9279 47.8877 17.1905 47.8302 17.4653 47.8302ZM24.5126 50.4956C24.4302 50.547 24.3463 50.5894 24.2608 50.6226C24.1783 50.6528 24.0638 50.6815 23.9173 50.7086L23.6242 50.7631C23.3494 50.8115 23.1524 50.8705 23.0333 50.9398C22.8317 51.0577 22.731 51.2406 22.731 51.4884C22.731 51.709 22.792 51.8691 22.9142 51.9689C23.0395 52.0656 23.1906 52.1139 23.3676 52.1139C23.6486 52.1139 23.9065 52.0323 24.1417 51.8691C24.3799 51.706 24.5034 51.4082 24.5126 50.9761V50.4956ZM23.7203 49.8927C23.9615 49.8626 24.1341 49.8248 24.2378 49.7794C24.4241 49.7009 24.5172 49.5785 24.5172 49.4123C24.5172 49.2098 24.4454 49.0709 24.302 48.9952C24.1615 48.9168 23.9539 48.8773 23.6791 48.8773C23.3708 48.8773 23.1524 48.953 23.0241 49.104C22.9326 49.2159 22.8715 49.3669 22.8409 49.5573H21.5815C21.6089 49.1252 21.7311 48.7702 21.9479 48.4922C22.2928 48.0569 22.8851 47.8394 23.7249 47.8394C24.2714 47.8394 24.7569 47.9467 25.1813 48.1613C25.6056 48.3757 25.818 48.7807 25.818 49.376V51.6426C25.818 51.7997 25.821 51.9901 25.827 52.2136C25.8363 52.3828 25.8623 52.4977 25.9049 52.5581C25.9477 52.6186 26.0118 52.6685 26.0973 52.7077V52.8981H24.6776C24.6378 52.7985 24.6103 52.7047 24.5951 52.6172C24.5799 52.5294 24.5677 52.4297 24.5585 52.318C24.3783 52.5114 24.1707 52.676 23.9355 52.8119C23.6546 52.9722 23.3371 53.0523 22.9828 53.0523C22.531 53.0523 22.1571 52.9253 21.8608 52.6715C21.5677 52.4147 21.4212 52.0519 21.4212 51.5836C21.4212 50.9761 21.6578 50.5365 22.131 50.2644C22.3905 50.1164 22.7722 50.0106 23.2761 49.9472L23.7203 49.8927ZM31.047 50.4956C30.9645 50.547 30.8807 50.5894 30.7952 50.6226C30.7127 50.6528 30.5982 50.6815 30.4517 50.7086L30.1584 50.7631C29.8837 50.8115 29.6868 50.8705 29.5677 50.9398C29.3661 51.0577 29.2654 51.2406 29.2654 51.4884C29.2654 51.709 29.3264 51.8691 29.4486 51.9689C29.5739 52.0656 29.725 52.1139 29.902 52.1139C30.183 52.1139 30.4409 52.0323 30.6761 51.8691C30.9143 51.706 31.0378 51.4082 31.047 50.9761V50.4956ZM30.2547 49.8927C30.4959 49.8626 30.6685 49.8248 30.7722 49.7794C30.9585 49.7009 31.0516 49.5785 31.0516 49.4123C31.0516 49.2098 30.9798 49.0709 30.8364 48.9952C30.6959 48.9168 30.4883 48.8773 30.2135 48.8773C29.9052 48.8773 29.6868 48.953 29.5585 49.104C29.467 49.2159 29.4059 49.3669 29.3753 49.5573H28.1157C28.1433 49.1252 28.2655 48.7702 28.4823 48.4922C28.8272 48.0569 29.4195 47.8394 30.2593 47.8394C30.8058 47.8394 31.2912 47.9467 31.7156 48.1613C32.14 48.3757 32.3522 48.7807 32.3522 49.376V51.6426C32.3522 51.7997 32.3554 51.9901 32.3614 52.2136C32.3706 52.3828 32.3967 52.4977 32.4393 52.5581C32.4821 52.6186 32.5462 52.6685 32.6317 52.7077V52.8981H31.212C31.1721 52.7985 31.1447 52.7047 31.1295 52.6172C31.1143 52.5294 31.1021 52.4297 31.0929 52.318C30.9127 52.5114 30.7051 52.676 30.4699 52.8119C30.189 52.9722 29.8715 53.0523 29.5172 53.0523C29.0654 53.0523 28.6914 52.9253 28.3952 52.6715C28.1021 52.4147 27.9556 52.0519 27.9556 51.5836C27.9556 50.9761 28.1922 50.5365 28.6654 50.2644C28.9249 50.1164 29.3066 50.0106 29.8105 49.9472L30.2547 49.8927ZM36.67 46.1485C36.7524 46.1485 36.8273 46.1517 36.8944 46.1577C36.9616 46.1606 37.0531 46.1668 37.1692 46.1759V47.2273C37.096 47.2184 36.9722 47.2123 36.7983 47.2093C36.6273 47.2032 36.5082 47.241 36.441 47.3226C36.3769 47.4013 36.3449 47.4889 36.3449 47.5856C36.3449 47.6822 36.3449 47.8213 36.3449 48.0026H37.2013V48.9136H36.3449V52.8981H35.0441V48.9136H34.3158V48.0026H35.0303V47.6852C35.0303 47.1564 35.1203 46.7923 35.3005 46.5927C35.4899 46.2967 35.9463 46.1485 36.67 46.1485ZM40.6076 47.368H39.2839V46.1759H40.6076V47.368ZM39.2839 47.9572H40.6076V52.8981H39.2839V47.9572ZM43.1665 51.5473H44.5542V52.8981H43.1665V51.5473ZM50.0947 49.7297C50.0702 49.5452 50.0078 49.379 49.9069 49.231C49.7603 49.0315 49.5329 48.9318 49.2245 48.9318C48.7848 48.9318 48.4841 49.148 48.3222 49.5801C48.2367 49.8097 48.1941 50.1148 48.1941 50.4956C48.1941 50.8582 48.2367 51.1499 48.3222 51.3706C48.478 51.7815 48.771 51.9869 49.2016 51.9869C49.5069 51.9869 49.7237 51.9055 49.852 51.7422C49.9801 51.579 50.058 51.3676 50.0854 51.1076H51.4183C51.3878 51.5005 51.2443 51.8722 50.9879 52.2227C50.5787 52.7878 49.9725 53.0703 49.1696 53.0703C48.3665 53.0703 47.7757 52.8347 47.3971 52.3632C47.0184 51.8918 46.8292 51.2798 46.8292 50.5273C46.8292 49.6782 47.0382 49.018 47.4566 48.5465C47.875 48.0751 48.4519 47.8394 49.1878 47.8394C49.8138 47.8394 50.3253 47.9784 50.7222 48.2564C51.1222 48.5344 51.3588 49.0255 51.4321 49.7297H50.0947ZM55.8871 51.9869C56.2687 51.9869 56.562 51.8526 56.7666 51.5836C56.9711 51.3147 57.0733 50.9323 57.0733 50.4368C57.0733 49.9411 56.9711 49.5603 56.7666 49.2944C56.562 49.0255 56.2687 48.891 55.8871 48.891C55.5054 48.891 55.2107 49.0255 55.0031 49.2944C54.7986 49.5603 54.6963 49.9411 54.6963 50.4368C54.6963 50.9323 54.7986 51.3147 55.0031 51.5836C55.2107 51.8526 55.5054 51.9869 55.8871 51.9869ZM58.4427 50.4368C58.4427 51.1619 58.2321 51.7831 57.8107 52.2998C57.3893 52.8135 56.7497 53.0703 55.8917 53.0703C55.0338 53.0703 54.394 52.8135 53.9726 52.2998C53.5514 51.7831 53.3406 51.1619 53.3406 50.4368C53.3406 49.7235 53.5514 49.1056 53.9726 48.5827C54.394 48.0601 55.0338 47.7985 55.8917 47.7985C56.7497 47.7985 57.3893 48.0601 57.8107 48.5827C58.2321 49.1056 58.4427 49.7235 58.4427 50.4368ZM66.2733 47.8485C66.4931 47.8485 66.7099 47.8907 66.9237 47.9755C67.1373 48.0601 67.3313 48.2081 67.5052 48.4197C67.6458 48.5918 67.7404 48.8034 67.7893 49.0543C67.8197 49.2205 67.8351 49.4636 67.8351 49.784L67.8259 52.8981H66.4885V49.7523C66.4885 49.5648 66.4581 49.4107 66.397 49.2898C66.2809 49.0602 66.0671 48.9455 65.7558 48.9455C65.3955 48.9455 65.1466 49.0935 65.0091 49.3897C64.939 49.5468 64.9038 49.7356 64.9038 49.9563V52.8981H63.5894V49.9563C63.5894 49.6631 63.5588 49.4501 63.4977 49.3172C63.3878 49.0784 63.1726 48.959 62.8519 48.959C62.4796 48.959 62.2292 49.0784 62.1009 49.3172C62.0306 49.4531 61.9955 49.6556 61.9955 49.9244V52.8981H60.6719V47.9663H61.9407V48.6869C62.1024 48.4302 62.2552 48.2473 62.3985 48.1385C62.652 47.9451 62.9803 47.8485 63.3832 47.8485C63.765 47.8485 64.0733 47.9315 64.3085 48.0977C64.4978 48.2519 64.6412 48.4498 64.7391 48.6915C64.91 48.4014 65.1222 48.1884 65.3757 48.0523C65.6443 47.9164 65.9436 47.8485 66.2733 47.8485Z" fill="#00568A"/>
</svg>
