<svg width="128" height="128" viewBox="0 0 128 128" fill="none" xmlns="http://www.w3.org/2000/svg">
<g clip-path="url(#clip0)">
<path d="M128 64C128 73.7676 125.811 83.0254 121.897 91.3086C119.771 95.8096 117.133 100.022 114.062 103.873C111.041 107.664 107.599 111.102 103.806 114.116C93.8135 122.065 81.3896 127.088 67.8271 127.888C66.5625 127.961 65.2852 128 64 128C61.043 128 58.1357 127.799 55.2852 127.409C46.4951 126.216 38.2725 123.232 30.9941 118.842C28.2383 117.183 25.6211 115.317 23.1572 113.274C9.00977 101.535 0 83.8193 0 64C0 44.1807 9.00977 26.4648 23.1572 14.7256C30.1064 8.95996 38.293 4.63379 47.2607 2.21289C52.5977 0.767578 58.209 0 64 0C69.791 0 75.4023 0.767578 80.7393 2.21289C87.084 3.92578 93.0381 6.59375 98.4395 10.0488C98.7295 10.2344 99.0176 10.4229 99.3047 10.6133C100.433 11.3604 101.535 12.1416 102.611 12.959C106.36 15.7939 109.782 19.0352 112.823 22.6172C113.241 23.1133 113.656 23.6143 114.062 24.124C117.133 27.9746 119.769 32.1904 121.897 36.6914C125.811 44.9746 128 54.2324 128 64Z" fill="#E0F3F2"/>
<path d="M121.897 11.0732V91.3086C111.65 112.995 89.5762 128 64 128C48.4727 128 34.2383 122.473 23.1572 113.274V11.0732C23.1572 6.17773 27.126 2.21289 32.0186 2.21289H113.037C117.93 2.21289 121.897 6.17773 121.897 11.0732Z" fill="#009B94"/>
<path d="M114.062 11.0732V103.873C102.337 118.577 84.2686 128 64 128C51.9238 128 40.6309 124.656 30.9941 118.842V11.0732C30.9941 10.5068 31.4541 10.0488 32.0186 10.0488H113.037C113.602 10.0488 114.062 10.5068 114.062 11.0732Z" fill="#FFF8C7"/>
<path d="M62.9892 65.1997L38.517 88.8021C37.4092 89.8706 35.5103 89.1144 35.5103 87.5992V79.6499C35.5103 78.712 34.7233 77.951 33.7478 77.951H1.75943C0.78706 77.951 0 77.1919 0 76.2511V51.7482C0 50.8103 0.78706 50.0483 1.75943 50.0483H33.7478C34.7233 50.0483 35.5103 49.2892 35.5103 48.3494V40.4001C35.5103 38.8878 37.4092 38.1287 38.517 39.1971L62.9892 62.7996C63.6754 63.4615 63.6754 64.5378 62.9892 65.1997Z" fill="#99D7D4"/>
<path d="M62.8071 65.1932L50.4536 77.5468V50.453L62.8071 62.8065C63.4653 63.4647 63.4653 64.535 62.8071 65.1932Z" fill="#99D7D4"/>
<path d="M114.062 10.0488L112.823 22.6172L103.806 114.116C92.8809 122.807 79.0469 128 64 128C61.043 128 58.1357 127.799 55.2852 127.409V21.8018L99.3047 10.6133L101.522 10.0488H114.062Z" fill="#009B93"/>
<path d="M114.062 10.0488V103.873C111.041 107.664 107.599 111.102 103.806 114.116C93.8135 122.065 81.3896 127.088 67.8271 127.888V21.8018L102.611 12.959L114.062 10.0488Z" fill="#00B8AF"/>
<path d="M87.416 81.5547C87.416 84.5137 85.4277 87.0088 82.7139 87.7744C82.1553 87.9336 81.5615 88.0195 80.9502 88.0195C77.3799 88.0195 74.4854 85.125 74.4854 81.5547C74.4854 77.9834 77.3799 75.0889 80.9502 75.0889C81.5615 75.0889 82.1553 75.1748 82.7139 75.335C85.4277 76.0996 87.416 78.5947 87.416 81.5547Z" fill="#FDAE2F"/>
<path d="M87.416 81.5547C87.416 84.5137 85.4277 87.0088 82.7139 87.7744C80 87.0088 78.0117 84.5137 78.0117 81.5547C78.0117 78.5947 80 76.0996 82.7139 75.335C85.4277 76.0996 87.416 78.5947 87.416 81.5547Z" fill="#FECF32"/>
</g>
<defs>
<clipPath id="clip0">
<rect width="128" height="128" fill="white"/>
</clipPath>
</defs>
</svg>
