<svg width="128" height="128" viewBox="0 0 128 128" fill="none" xmlns="http://www.w3.org/2000/svg">
<circle cx="64" cy="64" r="64" fill="#E0F3F2"/>
<g clip-path="url(#clip0)">
<path d="M64 52.0833C61.9723 52.0833 60.3333 50.4443 60.3333 48.4167V38.3333C60.3333 32.2687 55.398 27.3333 49.3333 27.3333C43.2687 27.3333 38.3333 32.2687 38.3333 38.3333V48.4167C38.3333 50.4443 36.6943 52.0833 34.6667 52.0833C32.639 52.0833 31 50.4443 31 48.4167V38.3333C31 28.2243 39.2243 20 49.3333 20C59.4423 20 67.6667 28.2243 67.6667 38.3333V48.4167C67.6667 50.4443 66.0277 52.0833 64 52.0833Z" fill="#90A4AE"/>
<path d="M70.4167 93.3332H28.25C23.7033 93.3332 20 89.6298 20 85.0832V53.9165C20 49.3698 23.7033 45.6665 28.25 45.6665H70.4167C74.9633 45.6665 78.6667 49.3698 78.6667 53.9165V85.0832C78.6667 89.6298 74.9633 93.3332 70.4167 93.3332Z" fill="#00B8AF"/>
<path d="M49.3333 20C39.2243 20 31 28.2243 31 38.3333V45.6667H38.3333V38.3333C38.3333 32.2687 43.2687 27.3333 49.3333 27.3333V20Z" fill="#7D8F97"/>
<path d="M49.3333 45.6665H38.3333H31H28.25C23.7033 45.6665 20 49.3698 20 53.9165V85.0832C20 89.6298 23.7033 93.3332 28.25 93.3332H49.3333V45.6665Z" fill="#009B94"/>
<path d="M105.166 92.8971C103.384 91.9328 101.158 92.5964 100.197 94.3711C98.0889 98.2541 94.0556 100.667 89.6666 100.667C87.4262 100.667 85.3069 99.9884 83.4479 98.8591L85.1969 97.1101C85.9816 96.3254 86.2163 95.1411 85.7946 94.1144C85.3656 93.0877 84.3609 92.4167 83.2536 92.4167H74.0869C72.5689 92.4167 71.3369 93.6487 71.3369 95.1667V104.333C71.3369 105.444 72.0079 106.445 73.0346 106.874C73.3756 107.014 73.7312 107.083 74.0869 107.083C74.8019 107.083 75.5059 106.805 76.0302 106.277L78.1312 104.176C81.4239 106.636 85.4572 108 89.6666 108C96.7506 108 103.255 104.117 106.64 97.8654C107.608 96.0834 106.944 93.8614 105.166 92.8971Z" fill="#607D8B"/>
<path d="M106.303 70.6257C105.28 70.204 104.092 70.435 103.307 71.2233L101.206 73.3243C97.9096 70.864 93.8799 69.5 89.6669 69.5C82.5682 69.5 76.0599 73.4013 72.6866 79.6787C71.7259 81.4643 72.3969 83.6863 74.1789 84.647C74.7326 84.944 75.3266 85.0833 75.9132 85.0833C77.2186 85.0833 78.4836 84.383 79.1472 83.1547C81.2409 79.2533 85.2742 76.8333 89.6669 76.8333C91.9072 76.8333 94.0266 77.5117 95.8856 78.641L94.1402 80.39C93.3556 81.1747 93.1209 82.359 93.5426 83.3857C93.9716 84.4123 94.9762 85.0833 96.0836 85.0833H105.25C106.768 85.0833 108 83.8513 108 82.3333V73.1667C108 72.0557 107.329 71.0547 106.303 70.6257Z" fill="#607D8B"/>
<path d="M83.2497 92.4167H74.083C72.565 92.4167 71.333 93.6487 71.333 95.1667V104.333C71.333 105.444 72.004 106.445 73.0307 106.874C73.3717 107.014 73.7273 107.083 74.083 107.083C74.798 107.083 75.502 106.805 76.0263 106.277L78.1273 104.176C81.4237 106.636 85.457 108 89.6663 108V100.667C87.426 100.667 85.3067 99.9884 83.4477 98.8591L85.1967 97.1101C85.9813 96.3254 86.216 95.1411 85.7943 94.1144C85.3617 93.0877 84.3607 92.4167 83.2497 92.4167Z" fill="#546D79"/>
<path d="M89.6669 69.5C82.5682 69.5 76.0599 73.4013 72.6866 79.6787C71.7259 81.4643 72.3969 83.6863 74.1789 84.647C74.7326 84.944 75.3266 85.0833 75.9132 85.0833C77.2186 85.0833 78.4836 84.383 79.1472 83.1547C81.2409 79.2533 85.2742 76.8333 89.6669 76.8333V69.5Z" fill="#546D79"/>
</g>
<defs>
<clipPath id="clip0">
<rect width="88" height="88" fill="white" transform="translate(20 20)"/>
</clipPath>
</defs>
</svg>
