<svg width="128" height="128" viewBox="0 0 128 128" fill="none" xmlns="http://www.w3.org/2000/svg">
<path d="M63.9999 128C99.346 128 128 99.346 128 63.9999C128 28.6537 99.346 0 63.9999 0C28.6537 0 0 28.6537 0 63.9999C0 99.346 28.6537 128 63.9999 128Z" fill="#E0F3F2"/>
<path d="M85.7018 23.7202H42.6604C34.2695 23.7202 29.9988 27.9899 29.9988 36.3796V118.214C31.0356 118.867 32.0887 119.497 33.1649 120.088V39.8634H94.881V120.058C96.0675 119.403 97.2256 118.703 98.3645 117.976V36.3799C98.3645 27.9899 94.0937 23.7202 85.7018 23.7202Z" fill="#202121"/>
<path d="M94.8813 120.058V39.863H33.1653V120.089C42.311 125.127 52.816 128 63.9959 128C75.1972 128 85.7235 125.114 94.8813 120.058Z" fill="#FFF8C7"/>
<path d="M72.199 33.2157C72.199 34.0321 71.5381 34.6922 70.7247 34.6922H57.6404C56.824 34.6922 56.1631 34.0324 56.1631 33.2157C56.1631 32.4 56.824 31.7402 57.6404 31.7402H70.7233C71.5371 31.7402 72.199 32.4 72.199 33.2157Z" fill="black"/>
<path d="M117.092 83.7508C117.092 87.0595 114.406 89.7447 111.096 89.7447H65.6431C62.3336 89.7447 59.6484 87.0606 59.6484 83.7508V57.2776C59.6484 53.967 62.3325 51.283 65.6431 51.283H111.096C114.405 51.283 117.092 53.9659 117.092 57.2776V83.7508Z" fill="#99D7D4"/>
<path d="M74.3361 97.8108C73.8662 98.2818 73.1032 98.2818 72.6344 97.8108L66.8892 89.6979C66.4204 89.229 66.4204 88.466 66.8892 87.9961H80.0772C80.5482 88.466 80.5482 89.229 80.0772 89.6979L74.3361 97.8108Z" fill="#99D7D4"/>
<path d="M107.919 62.2718C107.919 63.3643 107.035 64.2496 105.94 64.2496H73.4958C72.4033 64.2496 71.5161 63.3643 71.5161 62.2718C71.5161 61.1783 72.4033 60.2932 73.4958 60.2932H105.94C107.035 60.2932 107.919 61.1783 107.919 62.2718Z" fill="#009B93"/>
<path d="M107.919 70.1866C107.919 71.2791 107.035 72.1652 105.94 72.1652H73.4958C72.4033 72.1652 71.5161 71.2788 71.5161 70.1866C71.5161 69.0941 72.4033 68.208 73.4958 68.208H105.94C107.035 68.2067 107.919 69.0931 107.919 70.1866Z" fill="#009B93"/>
<path d="M107.919 78.0995C107.919 79.1919 107.035 80.0781 105.94 80.0781H73.4958C72.4033 80.0781 71.5161 79.1917 71.5161 78.0995C71.5161 77.0059 72.4033 76.1208 73.4958 76.1208H105.94C107.035 76.1206 107.919 77.0059 107.919 78.0995Z" fill="#009B93"/>
</svg>
