<svg width="48" height="48" viewBox="0 0 48 48" fill="none" xmlns="http://www.w3.org/2000/svg">
<circle cx="24" cy="24" r="24" fill="white"/>
<path d="M33.8105 30.8705C33.7578 30.6339 33.6849 30.3977 33.6233 30.1552C33.5965 30.0881 33.5462 30.03 33.5169 29.9629C33.4532 30.0238 33.3912 30.0847 33.3309 30.1406C33.1412 30.3309 32.9518 30.5087 32.7755 30.6831C32.6863 30.7666 32.6017 30.85 32.52 30.9306C32.4282 31.0011 32.3403 31.0721 32.2557 31.1355C31.5792 31.6559 31.1314 32.0043 31.1314 32.0043C31.1314 32.0043 31.5034 31.5803 32.0609 30.949C32.1271 30.8697 32.2041 30.7883 32.2774 30.7027C32.3424 30.6101 32.406 30.5125 32.4756 30.414C32.6138 30.2178 32.7571 30.0104 32.9074 29.7972C33.067 29.583 33.2117 29.3583 33.3405 29.1245C33.4725 28.8879 33.6049 28.6454 33.7406 28.4092C33.7825 28.3421 33.8105 28.2653 33.8482 28.196C34.5528 25.7147 36 22.2865 36 16.6279C36 12.4131 33.7284 9 29.502 9C27.7807 9.02192 26.0808 9.38227 24.4997 10.0604C24.6039 10.1451 24.7019 10.2371 24.7929 10.3358C25.007 10.5578 25.2198 10.7794 25.4212 10.9964C25.6227 11.2134 25.82 11.4137 26.0077 11.6094C26.1715 11.8201 26.3294 12.0225 26.4747 12.2066L27.4185 13.4364C27.4185 13.4364 26.961 13.0191 26.2758 12.3969C26.1057 12.2383 25.9197 12.0714 25.7228 11.8961C25.51 11.7388 25.286 11.5756 25.056 11.4062C24.826 11.2368 24.5852 11.0577 24.3439 10.882C24.0948 10.7114 23.8372 10.5536 23.5719 10.4092C23.3114 10.2569 23.0521 10.1021 22.7953 9.95604C22.5261 9.83308 22.2639 9.71401 22.0087 9.59883C21.8495 9.5233 21.692 9.45611 21.5412 9.39519C20.5426 9.15243 19.5203 9.02004 18.4926 9.00042C14.2619 9.00042 12 12.414 12 16.6283C12 21.959 13.3186 25.3057 14.0479 27.7553C14.1493 27.9736 14.2536 28.1964 14.3796 28.4097C14.5154 28.6463 14.6511 28.8887 14.7822 29.1249C14.9109 29.3582 15.0562 29.5821 15.217 29.7947C15.3648 30.0079 15.5102 30.2153 15.6476 30.4115C15.7163 30.5104 15.782 30.6076 15.8445 30.7002C15.9215 30.7837 15.9936 30.8672 16.0635 30.9464C16.6227 31.5778 16.9909 32.0018 16.9909 32.0018C16.9909 32.0018 16.5431 31.6534 15.8667 31.133C15.7829 31.0696 15.6941 30.999 15.6049 30.9281C15.5211 30.8446 15.4373 30.7649 15.3468 30.6806C15.1705 30.5074 14.9845 30.3297 14.7914 30.1381C14.6972 30.048 14.5996 29.9541 14.504 29.8602C14.5103 29.9687 14.4136 30.0526 14.3784 30.1523C14.3122 30.3948 14.2427 30.6314 14.1924 30.8676C14.0792 31.3126 13.9978 31.7652 13.949 32.2217C13.8495 32.995 13.8355 33.7769 13.9072 34.5532C13.9546 35.1578 14.0494 35.7578 14.1907 36.3476C14.2348 36.5466 14.3004 36.7402 14.3863 36.9252C14.4488 37.0858 14.5087 37.2173 14.5468 37.3287C14.6423 37.5482 14.6984 37.6713 14.6984 37.6713C14.8447 37.9455 15.0615 38.1759 15.3267 38.339C15.7033 38.5626 16.1535 38.6285 16.5787 38.5223C17.0039 38.4161 17.3696 38.1464 17.5958 37.7723C17.5958 37.7723 17.6657 37.6575 17.7709 37.4506C17.876 37.2544 18.0302 36.8901 18.2245 36.5596C18.413 36.2675 18.6468 35.9015 18.9048 35.4809C19.0443 35.2722 19.1678 35.0544 19.3341 34.8399C19.4786 34.6088 19.638 34.3873 19.8112 34.1768C19.9734 33.9476 20.149 33.7283 20.3373 33.52C20.4366 33.414 20.5183 33.3005 20.6088 33.1899C20.7101 33.0922 20.8056 32.9912 20.902 32.889C21.0938 32.6803 21.3058 32.5172 21.5001 32.3248C21.7251 32.1808 21.8951 31.9739 22.1155 31.8628C22.4495 31.6217 22.8205 31.4361 23.2142 31.3133C23.2561 31.3012 23.29 31.2903 23.3315 31.2753L23.4354 31.2544C23.504 31.2482 23.5748 31.2081 23.6398 31.2189C23.7009 31.2189 23.7608 31.1935 23.8182 31.196C23.8495 31.2003 23.8812 31.2003 23.9125 31.196H23.9543L23.9703 31.1935L24.3933 31.2131C24.5328 31.2194 24.4972 31.234 24.4813 31.2373C24.5047 31.2468 24.5294 31.2526 24.5546 31.2544L24.6648 31.2753C24.7031 31.2901 24.7423 31.3028 24.782 31.3133C25.1761 31.4368 25.5477 31.6223 25.8829 31.8628C26.1019 31.9739 26.2707 32.1808 26.4944 32.3248C26.6925 32.5172 26.9007 32.6808 27.0938 32.894C27.1918 32.9917 27.2895 33.0926 27.387 33.1903C27.475 33.3013 27.5609 33.4144 27.6585 33.5204C27.849 33.7278 28.026 33.9472 28.1884 34.1772C28.3718 34.3859 28.5004 34.6183 28.6617 34.8403C28.8144 35.0461 28.9557 35.26 29.0848 35.4813C29.3687 35.8957 29.5715 36.2967 29.7759 36.623C29.9715 36.9677 30.1173 37.2436 30.2212 37.4238C30.3313 37.6175 30.3937 37.7201 30.3937 37.7201L30.5173 37.9067C30.6775 38.154 30.9048 38.3509 31.1729 38.4746C31.3615 38.564 31.5659 38.6155 31.7745 38.6261C31.9831 38.6368 32.1917 38.6063 32.3885 38.5366C32.5853 38.4668 32.7663 38.3591 32.9212 38.2196C33.0762 38.08 33.202 37.9115 33.2915 37.7235C33.3489 37.6035 33.3999 37.4807 33.4444 37.3554C33.5824 37.0078 33.7024 36.6535 33.8042 36.2938C33.946 35.7232 34.0429 35.1425 34.0941 34.557C34.1628 33.7805 34.1487 32.999 34.0522 32.2255C34.0004 31.7692 33.9197 31.3166 33.8105 30.8705Z" fill="#00568A"/>
<path d="M24.3947 14.2889C24.3947 14.2889 21.7315 10.489 19.2844 11.2777C16.8374 12.0664 17.0543 14.7192 15.9753 14.2889C14.8963 13.8587 14.0313 17.8014 15.9753 18.0171C17.9193 18.2329 17.4862 19.4502 18.7818 20.6691C20.0774 21.888 23.1712 19.7368 25.8327 20.6691C28.4943 21.6014 30.5108 20.4546 30.3663 18.8776C30.2217 17.3006 28.4222 17.6491 28.1366 16.1121C27.8509 14.5752 24.8266 15.7224 24.3947 14.2889Z" fill="url(#paint0_linear)"/>
<path d="M21.4575 15.8035C21.6139 15.8035 21.7406 15.6772 21.7406 15.5214C21.7406 15.3656 21.6139 15.2393 21.4575 15.2393C21.3011 15.2393 21.1743 15.3656 21.1743 15.5214C21.1743 15.6772 21.3011 15.8035 21.4575 15.8035Z" fill="#E2450E"/>
<path d="M19.4251 17.5772C19.5022 17.5772 19.5646 17.515 19.5646 17.4383C19.5646 17.3615 19.5022 17.2993 19.4251 17.2993C19.3481 17.2993 19.2856 17.3615 19.2856 17.4383C19.2856 17.515 19.3481 17.5772 19.4251 17.5772Z" fill="#E2450E"/>
<path d="M22.9434 18.5098C23.0849 18.5098 23.1997 18.3955 23.1997 18.2544C23.1997 18.1134 23.0849 17.999 22.9434 17.999C22.8018 17.999 22.687 18.1134 22.687 18.2544C22.687 18.3955 22.8018 18.5098 22.9434 18.5098Z" fill="#E2450E"/>
<path d="M25.056 17.2372C25.1031 17.2372 25.1412 17.199 25.1412 17.152C25.1412 17.105 25.1031 17.0669 25.056 17.0669C25.0089 17.0669 24.9707 17.105 24.9707 17.152C24.9707 17.199 25.0089 17.2372 25.056 17.2372Z" fill="#E2450E"/>
<path d="M17.9146 13.4549C17.9617 13.4549 18 13.4168 18 13.3698C18 13.3228 17.9617 13.2847 17.9146 13.2847C17.8674 13.2847 17.8291 13.3228 17.8291 13.3698C17.8291 13.4168 17.8674 13.4549 17.9146 13.4549Z" fill="#E2450E"/>
<path d="M17.1659 16.2689C17.2949 16.2689 17.3996 16.1647 17.3996 16.0361C17.3996 15.9075 17.2949 15.8032 17.1659 15.8032C17.0368 15.8032 16.9321 15.9075 16.9321 16.0361C16.9321 16.1647 17.0368 16.2689 17.1659 16.2689Z" fill="#E2450E"/>
<defs>
<linearGradient id="paint0_linear" x1="14.8193" y1="16.1119" x2="30.3736" y2="16.1119" gradientUnits="userSpaceOnUse">
<stop stop-color="#AEFAFC"/>
<stop offset="0.105" stop-color="#A5F6F8"/>
<stop offset="0.271" stop-color="#8FECEE"/>
<stop offset="0.476" stop-color="#6ADCDF"/>
<stop offset="0.71" stop-color="#38C6C9"/>
<stop offset="0.865" stop-color="#13B6BA"/>
</linearGradient>
</defs>
</svg>
