<svg width="48" height="48" viewBox="0 0 48 48" fill="none" xmlns="http://www.w3.org/2000/svg">
<circle cx="24" cy="24" r="24" fill="white"/>
<path d="M19.9632 12.7875L15.2118 14.0292L14.9425 17.9575C14.9425 17.9575 14.2347 19.3664 14.201 19.5351C14.1673 19.7037 14.201 21.3133 14.201 21.3133C14.201 21.3133 14.6054 23.3948 14.6395 23.4959C14.6737 23.597 15.6167 25.4763 15.6167 25.4763L16.1216 27.3222L17.3689 28.3282C17.3689 28.3282 21.5467 30.3086 21.7482 30.4097C22.2702 30.6993 22.7566 31.0485 23.1975 31.4502C23.3995 31.7185 25.0839 33.8666 25.0839 33.8666C25.0839 33.8666 25.9932 35.0757 25.9932 35.5433C26.0608 36.0447 26.0608 36.5528 25.9932 37.0542C25.8591 37.4897 25.3869 38.7654 25.3532 39.0011C25.3195 39.2368 24.9036 41.9171 24.9036 41.9171C24.9036 41.9171 32.0584 39.7398 34.4584 33.6381C34.4848 31.9178 30.3739 27.5832 30.3403 27.3509C30.3066 27.1186 29.4646 24.7012 29.3968 23.7948C29.3362 22.8339 29.325 21.8706 29.3631 20.9085C29.3968 20.2709 29.9695 20.0017 29.7339 18.6569C29.4983 17.3122 29.4646 17.1129 28.8246 16.3407C28.1845 15.5685 25.321 13.9583 24.141 13.4544C22.9609 12.9504 19.7944 12.7837 19.7944 12.7837L19.9632 12.7875Z" fill="#E5BD88"/>
<path d="M21.2538 40.7342C20.8566 39.7281 22.3516 39.0833 23.0623 38.3844C23.6234 37.898 24.1453 37.3684 24.6232 36.8006C25.2459 35.9627 25.1916 35.3026 24.4419 34.5792C23.8644 34.0757 23.2103 33.6666 22.504 33.3672C16.9231 30.6366 13.534 26.1899 12.2006 20.1763C11.535 17.1736 12.5612 14.6901 14.7539 12.6297C15.1967 12.2269 15.6623 11.8497 16.1485 11.5001C16.7674 11.0524 17.3474 10.5537 17.8825 10.0093C19.4414 8.38046 21.4548 7.64128 23.6331 7.32653C24.1549 7.1867 24.6849 7.07902 25.22 7.00413C31.5933 6.84269 34.7411 11.4455 35.724 15.8025C36.365 18.6481 35.8009 21.3534 34.9397 24.0375C34.6261 25.0162 34.2472 25.9729 33.9034 26.9416C33.134 29.1045 33.5697 31.1812 34.3631 33.2321C34.4112 33.3567 34.5425 33.4678 34.4593 33.6412C31.8231 31.9722 29.4466 29.9274 27.4055 27.572C26.7366 26.7892 26.0403 26.0314 25.3825 25.2395C25.1087 24.9077 24.8722 24.547 24.6771 24.164C24.1433 23.1101 24.1962 22.6253 25.0324 21.7907C25.3326 21.512 25.5359 21.1453 25.6129 20.7438C25.6898 20.3422 25.6364 19.9267 25.4604 19.5574C25.4381 19.4391 25.3907 19.327 25.3212 19.2286C25.2518 19.1302 25.162 19.0477 25.0579 18.9868C24.9537 18.9259 24.8377 18.8879 24.7176 18.8754C24.5975 18.8629 24.4761 18.8763 24.3616 18.9145C23.862 19.0524 23.322 19.1583 23.2955 19.8683C23.2816 20.3375 23.17 20.7988 22.9678 21.2228C22.7656 21.6469 22.4771 22.0244 22.1208 22.3316C22.7887 20.7406 22.2684 19.6489 21.1211 18.7348C18.7028 16.8076 18.7071 16.8023 17.428 14.1158C17.1089 15.0422 17.0561 16.0391 17.2756 16.9939C17.3035 17.1094 17.3636 17.2162 17.3891 17.3326C17.4742 17.7159 17.8219 18.1418 17.5396 18.4824C17.2213 18.8656 16.7438 18.5384 16.2788 18.4579C16.3289 18.6197 16.4332 18.7594 16.5743 18.8538C16.7153 18.9481 16.8847 18.9914 17.0539 18.9763C17.643 18.97 17.429 19.2158 17.2463 19.4692C17.0219 19.8252 16.7266 20.1315 16.3787 20.3691C16.0307 20.6068 15.6374 20.7707 15.2233 20.8508C14.7564 20.9265 14.7285 21.1459 14.8814 21.4794C14.9865 21.7457 15.1361 21.9923 15.3238 22.209C15.6974 22.5922 16.2013 22.8265 15.7046 23.5427C15.5426 23.7764 15.8325 24.5008 16.1196 24.8213C16.293 25.0177 16.4115 25.2561 16.4633 25.5125C16.515 25.769 16.4981 26.0345 16.4144 26.2824C16.3076 26.7964 16.2667 27.3009 16.7029 27.6774C17.1862 28.0956 17.7007 27.8427 18.1912 27.653C18.8826 27.3857 19.5583 27.0743 20.2589 26.8338C21.6303 26.3634 22.3502 26.543 23.1739 27.7531C24.6959 29.903 25.944 32.2329 26.8895 34.6894C27.6257 36.7105 27.178 38.5453 26.062 40.2819C25.7003 40.8443 25.2926 41.3756 24.9036 41.9217C24.2202 41.7066 23.5384 41.4906 22.8551 41.2779C22.6007 41.2457 22.3432 41.2467 22.0891 41.2808C21.92 41.2506 21.7588 41.1866 21.6153 41.0926C21.4717 40.9987 21.3488 40.8767 21.2538 40.7342Z" fill="#8E692A"/>
</svg>
