<svg width="20" height="20" viewBox="0 0 20 20" fill="none" xmlns="http://www.w3.org/2000/svg">
<path d="M10.001 4.99988C9.45098 4.99988 9.00098 5.44988 9.00098 5.99988V8.99988H6.00098C5.45098 8.99988 5.00098 9.44988 5.00098 9.99988C5.00098 10.5499 5.45098 10.9999 6.00098 10.9999H9.00098V13.9999C9.00098 14.5499 9.45098 14.9999 10.001 14.9999C10.551 14.9999 11.001 14.5499 11.001 13.9999V10.9999H14.001C14.551 10.9999 15.001 10.5499 15.001 9.99988C15.001 9.44988 14.551 8.99988 14.001 8.99988H11.001V5.99988C11.001 5.44988 10.551 4.99988 10.001 4.99988ZM10.001 -0.00012207C4.48098 -0.00012207 0.000976562 4.47988 0.000976562 9.99988C0.000976562 15.5199 4.48098 19.9999 10.001 19.9999C15.521 19.9999 20.001 15.5199 20.001 9.99988C20.001 4.47988 15.521 -0.00012207 10.001 -0.00012207ZM10.001 17.9999C5.59098 17.9999 2.00098 14.4099 2.00098 9.99988C2.00098 5.58988 5.59098 1.99988 10.001 1.99988C14.411 1.99988 18.001 5.58988 18.001 9.99988C18.001 14.4099 14.411 17.9999 10.001 17.9999Z" fill="#009B94"/>
</svg>
