<svg width="24" height="24" viewBox="0 0 24 24" fill="none" xmlns="http://www.w3.org/2000/svg">
<path d="M12.8118 12.2637C12.8927 12.473 12.9375 12.7 12.9375 12.9375C12.9375 13.9714 12.0964 14.8125 11.0625 14.8125C10.0286 14.8125 9.1875 13.9714 9.1875 12.9375C9.1875 11.9036 10.0286 11.0625 11.0625 11.0625C11.1615 11.0625 11.2586 11.0703 11.3535 11.0852L14.2707 7.47342C14.596 7.07062 15.1863 7.00781 15.589 7.33317C15.9918 7.65848 16.0546 8.24873 15.7293 8.65153L12.8118 12.2637ZM11.6163 22.1086C11.4331 22.1195 11.2468 22.125 11.0625 22.125C5.99648 22.125 1.875 18.0035 1.875 12.9375C1.875 7.87148 5.99648 3.75 11.0625 3.75C16.0373 3.75 20.1582 7.79503 20.2485 12.767C20.2579 13.2847 20.6855 13.6966 21.2028 13.6873C21.7205 13.6779 22.1325 13.2506 22.1231 12.7329C22.0702 9.82097 20.8962 7.09181 18.8174 5.04816C16.9602 3.22252 14.5675 2.12944 12 1.91484V0.9375C12 0.419719 11.5803 0 11.0625 0C10.5447 0 10.125 0.419719 10.125 0.9375V1.9147C7.52372 2.13159 5.10698 3.24825 3.24014 5.11509C1.15069 7.20455 0 9.98259 0 12.9375C0 15.8924 1.15069 18.6705 3.24014 20.7599C5.32955 22.8493 8.10759 24 11.0625 24C11.2837 24 11.5075 23.9934 11.7275 23.9803C12.2443 23.9496 12.6384 23.5057 12.6077 22.9889C12.577 22.4721 12.1334 22.0779 11.6163 22.1086ZM17.448 2.31506L19.9771 4.41488C20.1522 4.56023 20.3644 4.63111 20.5755 4.63111C20.8447 4.63111 21.1118 4.51575 21.2972 4.29244C21.628 3.89405 21.5732 3.30305 21.1748 2.97225L18.6457 0.872437C18.2473 0.541687 17.6563 0.596484 17.3255 0.994875C16.9949 1.39327 17.0497 1.98431 17.448 2.31506ZM1.54959 4.63111C1.75781 4.63111 1.96739 4.56206 2.14139 4.42022L4.71736 2.32041C5.1187 1.99327 5.1788 1.40273 4.85166 1.00139C4.52452 0.600047 3.93398 0.539906 3.53264 0.867094L0.956672 2.96691C0.555328 3.29405 0.495234 3.88458 0.822375 4.28592C1.00767 4.51327 1.27748 4.63111 1.54959 4.63111ZM24 18.375C24 18.9631 23.7 19.4967 23.1973 19.8023L16.6948 23.7557C16.4289 23.9174 16.1279 23.9985 15.8267 23.9985C15.5445 23.9985 15.2621 23.9273 15.0079 23.7844C14.4826 23.489 14.1562 22.9311 14.1562 22.3284V14.4216C14.1562 13.8189 14.4826 13.261 15.0079 12.9656C15.5333 12.6702 16.1798 12.6811 16.6948 12.9943L23.1973 16.9477C23.7 17.2533 24 17.7869 24 18.375ZM21.9357 18.375L16.0312 14.7852V21.9648L21.9357 18.375Z" fill="#009B94"/>
</svg>
