<svg width="16" height="16" viewBox="0 0 16 16" fill="none" xmlns="http://www.w3.org/2000/svg">
<path d="M15.3591 10.8107C14.3663 11.2625 13.2876 11.495 12.1968 11.4922C7.95177 11.4875 4.5117 8.04746 4.50702 3.80245C4.50408 2.71163 4.73633 1.63301 5.18797 0.640106L5.47965 0L4.83848 0.288499C1.89516 1.61787 0.00301423 4.5476 0.00195358 7.7772C0.00046203 12.317 3.67948 15.9985 8.21932 16C11.4501 15.9979 14.3805 14.1049 15.7107 11.1608L15.9992 10.5191L15.3591 10.8107ZM11.9984 14.4775C8.30003 16.5652 3.60948 15.2595 1.52174 11.5612C-0.565995 7.86278 0.739706 3.17226 4.43808 1.08452C4.13069 1.95764 3.97467 2.87683 3.9767 3.80245C3.98197 8.34011 7.65913 12.0173 12.1968 12.0225C13.1224 12.0246 14.0416 11.8685 14.9147 11.5612C14.2263 12.7807 13.2179 13.7891 11.9984 14.4775Z" fill="#009B94"/>
</svg>
