<svg width="16" height="16" viewBox="0 0 16 16" fill="none" xmlns="http://www.w3.org/2000/svg">
<g clip-path="url(#clip0)">
<path d="M14.9072 4.01113C14.8266 3.87253 14.6489 3.8255 14.5103 3.90608L13.0927 4.72557C12.9541 4.80616 12.907 4.98389 12.9876 5.12249C13.0682 5.26109 13.2459 5.30812 13.3845 5.22753L14.8022 4.40804C14.9408 4.32742 14.9878 4.14973 14.9072 4.01113Z" fill="#009B94"/>
<path d="M14.8022 11.5937L13.3845 10.7742C13.2459 10.6937 13.0682 10.7407 12.9876 10.8793C12.907 11.0179 12.9541 11.1956 13.0927 11.2762L14.5103 12.0957C14.6489 12.1762 14.8266 12.1292 14.9072 11.9906C14.9878 11.852 14.9408 11.6743 14.8022 11.5937Z" fill="#009B94"/>
<path d="M8.02296 13.7367C7.8622 13.7247 7.72224 13.8453 7.71029 14.0061C7.70921 14.0205 7.70921 14.0349 7.71029 14.0493V15.6867C7.69834 15.8475 7.81898 15.9874 7.97974 15.9994C8.14051 16.0113 8.28047 15.8907 8.29242 15.7299C8.2935 15.7155 8.2935 15.7011 8.29242 15.6867V14.0493C8.30432 13.8886 8.18369 13.7486 8.02296 13.7367Z" fill="#009B94"/>
<path d="M2.9067 4.72557L1.48903 3.90608C1.35043 3.8255 1.1727 3.87253 1.09212 4.01113C1.01153 4.14973 1.05856 4.32746 1.19716 4.40804L2.61483 5.22753C2.75343 5.30812 2.93116 5.26109 3.01174 5.12249C3.09233 4.98385 3.0453 4.80616 2.9067 4.72557Z" fill="#009B94"/>
<path d="M8.02297 0.000816123C7.8622 -0.0111314 7.72223 0.109507 7.71028 0.270277C7.7092 0.28467 7.7092 0.299103 7.71028 0.313497V1.95087C7.71117 2.1108 7.84063 2.24026 8.00056 2.24114C8.16177 2.24114 8.29243 2.11048 8.29243 1.94927V0.313537C8.30434 0.152766 8.1837 0.0127637 8.02297 0.000816123Z" fill="#009B94"/>
<path d="M5.22591 2.61483L4.40804 1.19716C4.32745 1.05856 4.14972 1.01153 4.01112 1.09212C3.87253 1.1727 3.8255 1.35043 3.90608 1.48903L4.72396 2.9067C4.80455 3.0453 4.98228 3.09233 5.12087 3.01174C5.25947 2.93112 5.3065 2.75343 5.22591 2.61483Z" fill="#009B94"/>
<path d="M15.9562 7.97731C15.9455 7.83318 15.8309 7.71855 15.6867 7.70785H14.0493C13.8886 7.6959 13.7486 7.81654 13.7367 7.97731C13.7247 8.13808 13.8453 8.27804 14.0061 8.28999C14.0205 8.29107 14.035 8.29107 14.0494 8.28999H15.6867C15.8475 8.27808 15.9681 8.13808 15.9562 7.97731Z" fill="#009B94"/>
<path d="M1.99481 7.7098C1.98042 7.70871 1.96599 7.70871 1.95159 7.7098H0.314222C0.153452 7.72174 0.0328139 7.86175 0.0447614 8.02248C0.0554661 8.16661 0.17005 8.28123 0.314222 8.29194H1.95159C2.11236 8.30389 2.25232 8.18325 2.26427 8.02248C2.27622 7.86171 2.15558 7.7217 1.99481 7.7098Z" fill="#009B94"/>
<path d="M8.00037 3.71631C5.63469 3.71599 3.71667 5.63349 3.71631 7.99918C3.71615 9.13568 4.16767 10.2257 4.9714 11.0292C5.77361 11.8334 6.86327 12.2847 7.99917 12.2832C10.3649 12.2836 12.2829 10.3661 12.2832 8.00038C12.2836 5.63469 10.3661 3.71663 8.00037 3.71631ZM10.6164 10.6218C9.17095 12.0673 6.82739 12.0673 5.38194 10.6218C4.68662 9.9265 4.29656 8.98308 4.29785 7.99978C4.29644 7.01784 4.68662 6.07587 5.38194 5.38255V5.38736C6.82739 3.94191 9.17095 3.94191 10.6164 5.38736C12.0619 6.83281 12.0619 9.17637 10.6164 10.6218Z" fill="#009B94"/>
<path d="M12.095 14.5126C12.0948 14.5121 12.0945 14.5117 12.0942 14.5113L11.2747 13.0936C11.1942 12.955 11.0164 12.908 10.8778 12.9886C10.7392 13.0692 10.6922 13.2469 10.7728 13.3855L11.5923 14.8032C11.6725 14.9416 11.8498 14.9889 11.9884 14.909C12.1273 14.8289 12.1751 14.6515 12.095 14.5126Z" fill="#009B94"/>
<path d="M11.9986 1.09212C11.86 1.01153 11.6822 1.05856 11.6016 1.19716L10.7822 2.61482C10.701 2.7531 10.7474 2.93095 10.8856 3.01206C10.8859 3.01222 10.8861 3.01238 10.8864 3.01254C11.0249 3.09329 11.2026 3.0465 11.2834 2.90798C11.2836 2.90754 11.2839 2.9071 11.2841 2.9067L12.1036 1.48903C12.1842 1.35039 12.1372 1.1727 11.9986 1.09212Z" fill="#009B94"/>
<path d="M5.12249 12.9886C4.98389 12.908 4.80616 12.955 4.72557 13.0936L3.90608 14.5113C3.8255 14.6499 3.87253 14.8276 4.01113 14.9082C4.14973 14.9888 4.32746 14.9418 4.40804 14.8032L5.22753 13.3855C5.30812 13.2469 5.26109 13.0692 5.12249 12.9886Z" fill="#009B94"/>
<path d="M3.01174 10.8778C2.93116 10.7392 2.75343 10.6922 2.61483 10.7728L1.19716 11.5923C1.05856 11.6729 1.01153 11.8506 1.09212 11.9892C1.1727 12.1278 1.35043 12.1748 1.48903 12.0942L2.9067 11.2747C3.0453 11.1941 3.09233 11.0164 3.01174 10.8778Z" fill="#009B94"/>
</g>
<defs>
<clipPath id="clip0">
<rect width="16" height="16" fill="white"/>
</clipPath>
</defs>
</svg>
