<svg width="16" height="16" viewBox="0 0 16 16" fill="none" xmlns="http://www.w3.org/2000/svg">
<path d="M15.667 12.3328H11.8809C11.9629 12.0134 12.0068 11.6785 12.0068 11.3328C12.0068 9.12011 10.2129 7.32617 8 7.32617C5.78709 7.32617 3.99316 9.12011 3.99316 11.3328C3.99316 11.6785 4.03709 12.0134 4.11938 12.3328H0.33325C0.149156 12.3328 0 12.4822 0 12.6663C0 12.8504 0.149156 12.9998 0.33325 12.9998H15.667C15.8506 12.9998 16 12.8504 16 12.6663C16 12.4822 15.8506 12.3328 15.667 12.3328ZM11.1884 12.3328H4.81178C4.71191 12.0134 4.65966 11.6775 4.65966 11.3328C4.65966 10.4412 5.00731 9.60205 5.63816 8.9712C6.269 8.34036 7.10787 7.9927 7.99997 7.9927C8.89206 7.9927 9.73094 8.34036 10.3618 8.9712C10.9926 9.60205 11.3403 10.4412 11.3403 11.3328C11.3403 11.6775 11.288 12.0134 11.1884 12.3328Z" fill="#009B94"/>
<path d="M2.99927 11H0.999266C0.815172 11 0.666016 11.1494 0.666016 11.333C0.666016 11.5176 0.815172 11.667 0.999266 11.667H2.99927C3.18336 11.667 3.33252 11.5176 3.33252 11.333C3.33252 11.1494 3.18336 11 2.99927 11Z" fill="#009B94"/>
<path d="M15.001 11H15H13.001C12.8169 11 12.668 11.1494 12.668 11.333C12.668 11.5176 12.8169 11.6665 13.001 11.667L13.0015 11.6665L15.001 11.667V11.6665C15.1851 11.667 15.334 11.5176 15.334 11.333C15.334 11.1494 15.185 11 15.001 11Z" fill="#009B94"/>
<path d="M13.1863 6.14807C13.0559 6.0177 12.845 6.0177 12.7146 6.14807L12.7141 6.14857L11.3005 7.56213C11.1707 7.69226 11.1707 7.90344 11.3005 8.03357C11.4304 8.16369 11.6418 8.16369 11.7722 8.03357C11.7722 8.03357 11.7722 8.03357 11.7722 8.03332L13.1863 6.61926C13.3161 6.48913 13.3161 6.2782 13.1863 6.14807Z" fill="#009B94"/>
<path d="M7.99927 4C7.81517 4 7.66577 4.14916 7.66602 4.33325C7.66602 4.3335 7.66602 4.33375 7.66602 4.33422V6.33326C7.66602 6.51735 7.81517 6.66651 7.99927 6.66651C8.18337 6.66676 8.33253 6.51735 8.33253 6.33326V4.33325C8.33253 4.14916 8.18337 4 7.99927 4Z" fill="#009B94"/>
<path d="M4.70014 7.56213C4.69989 7.56213 4.69989 7.56188 4.69989 7.56188L3.28583 6.14807C3.1557 6.0177 2.94477 6.0177 2.81439 6.14807C2.68427 6.2782 2.68427 6.48939 2.81439 6.61951C2.81464 6.61951 2.81489 6.61976 2.81514 6.62001L4.2287 8.03357C4.35883 8.16369 4.57002 8.16369 4.70014 8.03357C4.83027 7.90344 4.83027 7.69251 4.70014 7.56213Z" fill="#009B94"/>
</svg>
