<svg width="24" height="24" viewBox="0 0 24 24" fill="none" xmlns="http://www.w3.org/2000/svg">
<path d="M20.4853 3.51469C18.2188 1.24823 15.2053 0 12 0C8.79469 0 5.78123 1.24823 3.51469 3.51469C1.24823 5.78123 0 8.79469 0 12C0 15.2053 1.24823 18.2188 3.51469 20.4853C5.78123 22.7518 8.79469 24 12 24C15.2053 24 18.2188 22.7518 20.4853 20.4853C22.7518 18.2188 24 15.2053 24 12C24 8.79469 22.7518 5.78123 20.4853 3.51469ZM12 22.125C6.41705 22.125 1.875 17.583 1.875 12C1.875 6.41705 6.41705 1.875 12 1.875C17.583 1.875 22.125 6.41705 22.125 12C22.125 17.583 17.583 22.125 12 22.125Z" fill="#009B94"/>
<path d="M12.9375 11.0625V3.5625H11.0625V12.9375H18.1875V11.0625H12.9375Z" fill="#009B94"/>
</svg>
